<?xml version="1.0" encoding="UTF-8"?>
<svg version="1.1" xmlns="http://www.w3.org/2000/svg" width="150" height="150">
<path d="M0 0 C3.68623011 1.61272567 4.75355 2.630325 7 6 C6.6875 9.3125 6.6875 9.3125 6 13 C5.7215625 14.7015625 5.7215625 14.7015625 5.4375 16.4375 C5.293125 17.283125 5.14875 18.12875 5 19 C5.94875 19.61875 6.8975 20.2375 7.875 20.875 C11 23 11 23 13 25 C13.45169754 30.51071003 13.25622132 33.3870198 10 38 C10 38.66 10 39.32 10 40 C10.65484375 39.97905273 11.3096875 39.95810547 11.984375 39.93652344 C14.98942328 39.85269617 17.99422464 39.80113105 21 39.75 C22.02996094 39.71648438 23.05992188 39.68296875 24.12109375 39.6484375 C32.05166205 39.54741115 37.20093709 40.90026708 43.35546875 45.921875 C44.58594653 47.14972916 45.81509526 48.37891651 47.04296875 49.609375 C49.50505777 51.35888336 51.04489843 51.26539772 54 51 C53.1875 52.9375 53.1875 52.9375 52 55 C50.515 55.495 50.515 55.495 49 56 C51.31 56.66 53.62 57.32 56 58 C55 59.5 55 59.5 53 61 C46.00513145 61.94845675 42.60552499 59.93389726 37 56 C35.67582611 55.21353619 34.34297769 54.44140498 33 53.6875 C32.01 53.130625 31.02 52.57375 30 52 C29.67 52.33 29.34 52.66 29 53 C29.9075 53.66 30.815 54.32 31.75 55 C37.28916884 59.6377475 40.1865943 66.89883912 41 74 C40.93031739 79.1255433 40.52966037 83.4797872 38 88 C37.34 88 36.68 88 36 88 C35.67 86.35 35.34 84.7 35 83 C34.38125 83.825 33.7625 84.65 33.125 85.5 C32.42375 86.325 31.7225 87.15 31 88 C30.34 88 29.68 88 29 88 C29.165 87.319375 29.33 86.63875 29.5 85.9375 C30.6221044 79.34513667 30.14186343 73.90027109 27 68 C24.7774268 65.45217219 23.02132669 63.51066334 20 62 C20.42152344 62.79664063 20.84304687 63.59328125 21.27734375 64.4140625 C21.82519531 65.47367187 22.37304688 66.53328125 22.9375 67.625 C23.48277344 68.66914062 24.02804688 69.71328125 24.58984375 70.7890625 C29.47431703 81.91104875 27.95673171 96.67236555 24.26171875 107.96484375 C21.7339792 114.04550514 18.29541214 119.21148319 12.203125 122.19140625 C-2.58792525 127.62003639 -20.08996149 128.16195816 -35 123 C-36.08925781 122.62488281 -37.17851563 122.24976563 -38.30078125 121.86328125 C-48.65929807 118.0759112 -58.6782644 113.56008412 -66 105 C-70.23470768 95.56755142 -67.8591113 84.00022342 -64.375 74.625 C-59.43399834 62.19086973 -51.66178223 51.8723593 -39.3125 46.125 C-35.59714788 44.57519722 -31.86148931 43.14801034 -28 42 C-27.34 38.7 -26.68 35.4 -26 32 C-27.32 31.34 -28.64 30.68 -30 30 C-31.06856 26.22442133 -31.36204775 23.93706476 -29.9375 20.25 C-27.49212002 17.41020389 -25.52127199 16.28661861 -22 15 C-18.125 14.8125 -18.125 14.8125 -15 15 C-15.020625 14.21625 -15.04125 13.4325 -15.0625 12.625 C-15 10 -15 10 -14 8 C-13.814375 6.515 -13.814375 6.515 -13.625 5 C-12.22608359 -1.71479878 -5.5314551 -0.58318856 0 0 Z " fill="#0179FE" transform="translate(81,7)"/>
<path d="M0 0 C3.68623011 1.61272567 4.75355 2.630325 7 6 C6.6875 9.3125 6.6875 9.3125 6 13 C5.7215625 14.7015625 5.7215625 14.7015625 5.4375 16.4375 C5.293125 17.283125 5.14875 18.12875 5 19 C5.94875 19.61875 6.8975 20.2375 7.875 20.875 C11 23 11 23 13 25 C13.45169754 30.51071003 13.25622132 33.3870198 10 38 C10 38.66 10 39.32 10 40 C10.65484375 39.97905273 11.3096875 39.95810547 11.984375 39.93652344 C14.98942328 39.85269617 17.99422464 39.80113105 21 39.75 C22.02996094 39.71648438 23.05992188 39.68296875 24.12109375 39.6484375 C32.05166205 39.54741115 37.20093709 40.90026708 43.35546875 45.921875 C44.58594653 47.14972916 45.81509526 48.37891651 47.04296875 49.609375 C49.50505777 51.35888336 51.04489843 51.26539772 54 51 C53.1875 52.9375 53.1875 52.9375 52 55 C50.515 55.495 50.515 55.495 49 56 C51.31 56.66 53.62 57.32 56 58 C55 59.5 55 59.5 53 61 C46.00513145 61.94845675 42.60552499 59.93389726 37 56 C35.67582611 55.21353619 34.34297769 54.44140498 33 53.6875 C32.01 53.130625 31.02 52.57375 30 52 C29.67 52.33 29.34 52.66 29 53 C29.9075 53.66 30.815 54.32 31.75 55 C37.28916884 59.6377475 40.1865943 66.89883912 41 74 C40.93031739 79.1255433 40.52966037 83.4797872 38 88 C37.34 88 36.68 88 36 88 C35.67 86.35 35.34 84.7 35 83 C34.38125 83.825 33.7625 84.65 33.125 85.5 C32.42375 86.325 31.7225 87.15 31 88 C30.34 88 29.68 88 29 88 C29.165 87.319375 29.33 86.63875 29.5 85.9375 C30.6221044 79.34513667 30.14186343 73.90027109 27 68 C24.7774268 65.45217219 23.02132669 63.51066334 20 62 C20.515625 62.763125 21.03125 63.52625 21.5625 64.3125 C22.036875 65.199375 22.51125 66.08625 23 67 C22.505 68.485 22.505 68.485 22 70 C21.64550781 69.32195312 21.29101562 68.64390625 20.92578125 67.9453125 C16.66781274 60.5016 11.84677875 56.06058039 4.98828125 51.19140625 C2 49 2 49 -0.20703125 46.77734375 C-1.97512849 44.7620155 -1.97512849 44.7620155 -5 44 C-5.25440915 47.23249273 -5.05808357 49.92150346 -4 53 C-0.9955804 56.12842941 2.48357659 58.48069213 6 61 C8.1658905 62.91157851 10.05725692 64.85275765 12 67 C12 67.66 12 68.32 12 69 C8.43351075 68.56328703 5.12503189 68.03893937 1.6887207 66.96875 C-2.06168697 65.98379947 -5.09296509 65.79807658 -8.95703125 65.875 C-10.23384766 65.89046875 -11.51066406 65.9059375 -12.82617188 65.921875 C-14.83195782 65.96118487 -16.83774371 66.00050979 -18.84350586 66.04101562 C-20.79788304 66.07702791 -22.7524672 66.10120013 -24.70703125 66.125 C-25.8669458 66.14820312 -27.02686035 66.17140625 -28.22192383 66.1953125 C-31 66 -31 66 -33 64 C-30.99871013 61.99871013 -27.1237434 62.58195125 -24.375 62.4375 C-23.61533936 62.3964917 -22.85567871 62.3554834 -22.07299805 62.31323242 C-1.13044427 61.26251533 -1.13044427 61.26251533 6 64 C4.93844996 63.0822334 3.87570321 62.16585095 2.8125 61.25 C2.17828125 60.70214844 1.5440625 60.15429688 0.890625 59.58984375 C-0.67331099 58.27471576 -2.29861024 57.03294982 -3.9375 55.8125 C-4.618125 55.214375 -5.29875 54.61625 -6 54 C-6 53.01 -6 52.02 -6 51 C-7.794375 51.061875 -7.794375 51.061875 -9.625 51.125 C-13.44067609 51.13850682 -16.41016735 50.33575168 -20 49 C-20.99 49 -21.98 49 -23 49 C-22.01 46.69 -21.02 44.38 -20 42 C-41.79013016 48.51598981 -41.79013016 48.51598981 -56.93798828 64.72363281 C-61.65773566 73.99244862 -65.35985454 82.54585405 -65.4375 93.0625 C-65.47037109 93.85205078 -65.50324219 94.64160156 -65.53710938 95.45507812 C-65.57642111 99.71861404 -65.44571496 101.44398947 -62.6953125 104.875 C-61.36113281 105.926875 -61.36113281 105.926875 -60 107 C-59.40058594 107.52464844 -58.80117188 108.04929687 -58.18359375 108.58984375 C-51.16346514 114.00806382 -43.24634639 117.80397544 -35 121 C-40.3004191 122.76680637 -45.15025319 119.29475825 -50 117 C-56.97510588 113.49274337 -64.74008971 108.8809029 -67.6875 101.2109375 C-69.65873369 87.26445918 -65.30281456 73.10936066 -57.6875 61.5 C-49.77744074 51.20134517 -40.36196871 45.67517989 -28 42 C-27.34 38.7 -26.68 35.4 -26 32 C-27.32 31.34 -28.64 30.68 -30 30 C-31.06856 26.22442133 -31.36204775 23.93706476 -29.9375 20.25 C-27.49212002 17.41020389 -25.52127199 16.28661861 -22 15 C-18.125 14.8125 -18.125 14.8125 -15 15 C-15.020625 14.21625 -15.04125 13.4325 -15.0625 12.625 C-15 10 -15 10 -14 8 C-13.814375 6.515 -13.814375 6.515 -13.625 5 C-12.22608359 -1.71479878 -5.5314551 -0.58318856 0 0 Z " fill="#1F282E" transform="translate(81,7)"/>
<path d="M0 0 C-0.66 2.31 -1.32 4.62 -2 7 C-1.67 6.67 -1.34 6.34 -1 6 C-0.01 6.309375 0.98 6.61875 2 6.9375 C4.79107476 7.76574576 7.34897139 8.12984264 10.25 8.3125 C11.4875 8.539375 12.725 8.76625 14 9 C15.5 11.1875 15.5 11.1875 17 14 C18.98288035 15.64484254 21.03924897 17.10897974 23.16015625 18.5703125 C25 20 25 20 27 23 C25.98679687 22.67386719 24.97359375 22.34773438 23.9296875 22.01171875 C18.36546058 20.43011586 12.85569406 20.79187219 7.11621094 20.96435547 C4.94970233 21.00084719 2.79842697 20.9448665 0.6328125 20.87890625 C-7.46142494 20.78805073 -12.21684604 21.30742732 -18.25 27 C-19.46429688 28.36125 -19.46429688 28.36125 -20.703125 29.75 C-23.2133264 32.2089728 -24.53061925 32.80858589 -28 33 C-29 32 -29 32 -29.21484375 29.68359375 C-28.84536761 25.06850082 -26.12351532 22.25765401 -23 19 C-18.38502623 15.33105472 -13.34221784 12.46563901 -8 10 C-19.99546199 14.72043643 -29.35242792 21.86618444 -34.875 33.75 C-37.38028192 39.55694485 -38.12145485 43.88287605 -38.0625 50.25 C-38.05347656 51.51328125 -38.04445313 52.7765625 -38.03515625 54.078125 C-38.02355469 55.04234375 -38.01195312 56.0065625 -38 57 C-39.485 57.495 -39.485 57.495 -41 58 C-40.01 58.226875 -39.02 58.45375 -38 58.6875 C-34.18127005 59.76418045 -31.17661211 61.58873977 -27.89453125 63.78125 C-21.08195917 68.1637706 -13.55380447 70.34285297 -5.625 71.625 C-4.88620605 71.74979736 -4.14741211 71.87459473 -3.38623047 72.00317383 C5.62592696 73.49007127 13.89436066 74.53003224 22.9375 72.8125 C24.77634766 72.48185547 24.77634766 72.48185547 26.65234375 72.14453125 C31.22499752 70.58118521 32.72317953 68.48416124 34.89282227 64.26293945 C37.29739781 58.72783891 37.45203568 53.46598543 37.375 47.5 C37.38660156 46.60152344 37.39820312 45.70304687 37.41015625 44.77734375 C37.37028642 35.6471518 35.16859964 29.42380826 28.8125 22.875 C28.32998779 22.35639404 27.84747559 21.83778809 27.3503418 21.3034668 C24.55254769 18.36492647 21.71993887 15.9969117 18.3125 13.8125 C15.8643349 12.15213548 15.12012377 11.57947705 14.51171875 8.64453125 C14.50113588 6.36921451 14.64088422 4.2444736 15 2 C18.69641133 2.58145796 20.49588317 4.08536882 23.1875 6.625 C26.26005202 9.4697681 29.36020632 12.04395583 32.75 14.5 C36.93564343 17.6887126 39.80508227 21.20206426 42 26 C42 26.66 42 27.32 42 28 C43.485 28.495 43.485 28.495 45 29 C49.28977695 41.64355312 48.06724295 56.81037841 43 69 C39.278737 75.87414866 34.51638743 79.59015474 27.109375 81.90234375 C13.298404 85.38720504 -1.43081161 85.550147 -15 81 C-15 80.34 -15 79.68 -15 79 C-15.80050781 78.76216797 -15.80050781 78.76216797 -16.6171875 78.51953125 C-27.69534598 75.05041934 -36.43424828 69.91282691 -45 62 C-48.12116152 55.75767697 -46.70636943 44.8254777 -45.05859375 38.234375 C-43.85676092 35.05460414 -42.5214396 32.03867634 -41 29 C-40.61585937 28.18144531 -40.23171875 27.36289063 -39.8359375 26.51953125 C-32.68859423 12.39501956 -21.54359215 5.97434845 -7.1015625 0.8828125 C-4 0 -4 0 0 0 Z " fill="#96CCFD" transform="translate(61,49)"/>
<path d="M0 0 C2.41238322 0.87723026 3.65446281 1.45977582 5.046875 3.63671875 C8.7972929 14.57543763 7.6208227 25.58959319 4.36328125 36.48828125 C3 39 3 39 0.734375 40.52734375 C-3.02965522 41.17798326 -4.7286398 40.05119336 -8.0625 38.25 C-13.60014964 35.47802521 -18.40582837 34.11248045 -24.5390625 33.421875 C-27 33 -27 33 -30 31 C-31.32 31 -32.64 31 -34 31 C-34 30.34 -34 29.68 -34 29 C-34.66 28.67 -35.32 28.34 -36 28 C-35.566875 27.62875 -35.13375 27.2575 -34.6875 26.875 C-32.53847015 24.48718905 -31.35242016 21.8980432 -30 19 C-29.34 19 -28.68 19 -28 19 C-27.73058594 18.41347656 -27.46117187 17.82695313 -27.18359375 17.22265625 C-26.00154813 15.00290721 -24.71899616 13.32160632 -23.0625 11.4375 C-22.30646484 10.56931641 -22.30646484 10.56931641 -21.53515625 9.68359375 C-21.02855469 9.12800781 -20.52195312 8.57242188 -20 8 C-19.50371094 7.45472656 -19.00742188 6.90945312 -18.49609375 6.34765625 C-17 5 -17 5 -14 4 C-12.65210653 3.01971384 -11.31787285 2.02028865 -10 1 C-6.86358252 -0.56820874 -3.42820517 -0.38163039 0 0 Z " fill="#0F8EFE" transform="translate(91,77)"/>
<path d="M0 0 C-0.91523437 0.40992188 -1.83046875 0.81984375 -2.7734375 1.2421875 C-4.55621094 2.05042969 -4.55621094 2.05042969 -6.375 2.875 C-7.55835937 3.40867187 -8.74171875 3.94234375 -9.9609375 4.4921875 C-13.02247043 5.8096989 -13.02247043 5.8096989 -15 8 C-16.10293459 8.89734981 -17.20724823 9.79300578 -18.3125 10.6875 C-28.43524608 19.46614702 -30.88838756 30.57555428 -31.84277344 43.61450195 C-31.92060059 44.79532349 -31.92060059 44.79532349 -32 46 C-31.23333008 45.99476318 -30.46666016 45.98952637 -29.67675781 45.98413086 C-26.20118022 45.96333636 -22.72561573 45.95033191 -19.25 45.9375 C-18.0434375 45.92912109 -16.836875 45.92074219 -15.59375 45.91210938 C-13.85351562 45.90727539 -13.85351562 45.90727539 -12.078125 45.90234375 C-11.00981445 45.89710693 -9.94150391 45.89187012 -8.84082031 45.88647461 C-6.37610765 45.98496992 -4.34754533 46.28434536 -2 47 C-2 47.66 -2 48.32 -2 49 C-0.906875 48.79375 0.18625 48.5875 1.3125 48.375 C5 48 5 48 8 50 C9.78301475 50.30565967 11.57733584 50.54758205 13.375 50.75 C19.60963475 51.66663524 24.54838243 53.92336964 30.08984375 56.85546875 C33.30223409 58.11886522 34.76074571 58.03202761 38 57 C41.26244175 45.48435739 43.42480242 33.1259169 38.65625 21.734375 C38 20 38 20 38 17 C42.95135084 24.02772377 43.20364748 28.8717817 43.25 37.25 C43.270625 38.16652344 43.29125 39.08304688 43.3125 40.02734375 C43.35688413 47.80566294 41.81255148 54.64743204 37 61 C35.21875 61.53515625 35.21875 61.53515625 33 62 C31.30993681 62.49126639 29.62251817 62.99169889 27.9375 63.5 C27.08027344 63.7578125 26.22304687 64.015625 25.33984375 64.28125 C23.55239461 64.83031618 21.77392313 65.40869229 20 66 C19.01 65.505 19.01 65.505 18 65 C16.55003573 64.74806736 15.09262402 64.53815495 13.6328125 64.3515625 C12.75214111 64.23474121 11.87146973 64.11791992 10.96411133 63.99755859 C10.02720459 63.87461426 9.09029785 63.75166992 8.125 63.625 C-10.96062785 61.01968608 -10.96062785 61.01968608 -17 58 C-18.53668865 57.77532169 -20.07968054 57.59203195 -21.625 57.4375 C-22.44226562 57.35371094 -23.25953125 57.26992187 -24.1015625 57.18359375 C-25.04128906 57.09271484 -25.04128906 57.09271484 -26 57 C-25.01 56.34 -24.02 55.68 -23 55 C-27.82624485 51.15870308 -30.83543524 49.37742233 -37 49 C-36.67 48.34 -36.34 47.68 -36 47 C-35.01 47 -34.02 47 -33 47 C-33.33 46.34 -33.66 45.68 -34 45 C-35.24197756 34.26576534 -32.44314916 24.52744195 -26.25 15.6875 C-20.75661933 9.02501524 -9.51021627 -3.17007209 0 0 Z " fill="#0948FA" transform="translate(56,59)"/>
<path d="M0 0 C6.98349792 0.14615944 10.62848973 2.6892597 15.49707031 7.71289062 C17.64799077 9.93608763 17.64799077 9.93608763 20.59082031 9.96289062 C21.31785156 9.87007812 22.04488281 9.77726562 22.79394531 9.68164062 C21.98144531 11.61914062 21.98144531 11.61914062 20.79394531 13.68164062 C19.80394531 14.01164062 18.81394531 14.34164062 17.79394531 14.68164062 C20.10394531 15.34164062 22.41394531 16.00164062 24.79394531 16.68164062 C23.79394531 18.18164062 23.79394531 18.18164062 21.79394531 19.68164062 C14.79907677 20.63009738 11.3994703 18.61553788 5.79394531 14.68164062 C4.46977142 13.89517682 3.13692301 13.12304561 1.79394531 12.36914062 C0.80394531 11.81226563 -0.18605469 11.25539063 -1.20605469 10.68164062 C-1.53605469 11.01164062 -1.86605469 11.34164062 -2.20605469 11.68164062 C-1.29855469 12.34164062 -0.39105469 13.00164063 0.54394531 13.68164062 C6.08311415 18.31938812 8.98053961 25.58047974 9.79394531 32.68164062 C9.7242627 37.80718392 9.32360568 42.16142783 6.79394531 46.68164062 C6.13394531 46.68164062 5.47394531 46.68164062 4.79394531 46.68164062 C4.29894531 44.20664063 4.29894531 44.20664063 3.79394531 41.68164062 C3.17519531 42.50664063 2.55644531 43.33164063 1.91894531 44.18164062 C1.21769531 45.00664063 0.51644531 45.83164063 -0.20605469 46.68164062 C-0.86605469 46.68164062 -1.52605469 46.68164062 -2.20605469 46.68164062 C-2.04105469 46.00101563 -1.87605469 45.32039063 -1.70605469 44.61914062 C-0.58395029 38.0267773 -1.06419126 32.58191171 -4.20605469 26.68164062 C-6.42862789 24.13381281 -8.184728 22.19230397 -11.20605469 20.68164062 C-11.20605469 20.02164063 -11.20605469 19.36164063 -11.20605469 18.68164062 C-12.04910156 18.29878906 -12.04910156 18.29878906 -12.90917969 17.90820312 C-15.49991951 16.52471281 -17.65713314 14.88225479 -19.95605469 13.05664062 C-20.75527344 12.425 -21.55449219 11.79335938 -22.37792969 11.14257812 C-22.98121094 10.66046875 -23.58449219 10.17835937 -24.20605469 9.68164062 C-23.33105469 3.80664062 -23.33105469 3.80664062 -22.20605469 2.68164062 C-19.36632933 2.35812761 -16.52531732 2.16859772 -13.67480469 1.96289062 C-9.16112589 1.44867405 -4.94422294 0.12013612 0 0 Z " fill="#0282A9" transform="translate(112.2060546875,48.318359375)"/>
<path d="M0 0 C0.495 1.98 0.495 1.98 1 4 C1.99 3.34 2.98 2.68 4 2 C11.33594829 1.19835889 17.97746921 1.1470404 24.37890625 5.04296875 C26.50035043 6.2953876 28.5731184 6.6966398 31 7 C31 5.68 31 4.36 31 3 C32.65 3 34.3 3 36 3 C36.495 3.99 36.495 3.99 37 5 C37.68102783 4.98952637 38.36205566 4.97905273 39.0637207 4.96826172 C42.14660966 4.92671122 45.22943971 4.90067689 48.3125 4.875 C49.38435547 4.85824219 50.45621094 4.84148438 51.56054688 4.82421875 C52.58857422 4.81777344 53.61660156 4.81132813 54.67578125 4.8046875 C55.62364502 4.79421387 56.57150879 4.78374023 57.5480957 4.77294922 C60 5 60 5 63 7 C61.96359375 7.06058594 60.9271875 7.12117188 59.859375 7.18359375 C58.48957127 7.26803371 57.11978025 7.35267997 55.75 7.4375 C54.72712891 7.49647461 54.72712891 7.49647461 53.68359375 7.55664062 C50.34014396 7.76763503 47.22410527 8.09498799 44 9 C41.33864152 9.39337598 38.67278227 9.6881754 36 10 C35.67 11.98 35.34 13.96 35 16 C36.26457031 16.87011719 36.26457031 16.87011719 37.5546875 17.7578125 C38.66202165 18.54608427 39.76876154 19.33519131 40.875 20.125 C41.43058594 20.50398438 41.98617187 20.88296875 42.55859375 21.2734375 C46.46260731 24.09561598 47.92341776 26.33481029 49 31 C49.309375 32.175625 49.309375 32.175625 49.625 33.375 C49.810625 34.179375 49.810625 34.179375 50 35 C47.80602166 32.31847092 45.81921123 29.70621824 44 26.75 C40.8195763 22.19371902 36.32232214 19.29567133 31.83984375 16.11328125 C29 14 29 14 26.81640625 11.79296875 C25.02845883 9.7642661 25.02845883 9.7642661 22 9 C21.74559085 12.23249273 21.94191643 14.92150346 23 18 C26.0044196 21.12842941 29.48357659 23.48069213 33 26 C35.1658905 27.91157851 37.05725692 29.85275765 39 32 C39 32.66 39 33.32 39 34 C35.43351075 33.56328703 32.12503189 33.03893937 28.6887207 31.96875 C24.93831303 30.98379947 21.90703491 30.79807658 18.04296875 30.875 C16.76615234 30.89046875 15.48933594 30.9059375 14.17382812 30.921875 C12.16804218 30.96118487 10.16225629 31.00050979 8.15649414 31.04101562 C6.20211696 31.07702791 4.2475328 31.10120013 2.29296875 31.125 C1.1330542 31.14820312 -0.02686035 31.17140625 -1.22192383 31.1953125 C-4 31 -4 31 -6 29 C-3.99871013 26.99871013 -0.1237434 27.58195125 2.625 27.4375 C3.38466064 27.3964917 4.14432129 27.3554834 4.92700195 27.31323242 C25.86955573 26.26251533 25.86955573 26.26251533 33 29 C31.93844996 28.0822334 30.87570321 27.16585095 29.8125 26.25 C29.17828125 25.70214844 28.5440625 25.15429688 27.890625 24.58984375 C26.32668901 23.27471576 24.70138976 22.03294982 23.0625 20.8125 C22.381875 20.214375 21.70125 19.61625 21 19 C21 18.01 21 17.02 21 16 C19.80375 16.04125 18.6075 16.0825 17.375 16.125 C13.55932391 16.13850682 10.58983265 15.33575168 7 14 C6.01 14 5.02 14 4 14 C4.99 11.69 5.98 9.38 7 7 C-14.79013016 13.51598981 -14.79013016 13.51598981 -29.93798828 29.72363281 C-34.65773566 38.99244862 -38.35985454 47.54585405 -38.4375 58.0625 C-38.47037109 58.85205078 -38.50324219 59.64160156 -38.53710938 60.45507812 C-38.57642111 64.71861404 -38.44571496 66.44398947 -35.6953125 69.875 C-34.36113281 70.926875 -34.36113281 70.926875 -33 72 C-32.40058594 72.52464844 -31.80117188 73.04929687 -31.18359375 73.58984375 C-24.16346514 79.00806382 -16.24634639 82.80397544 -8 86 C-13.3004191 87.76680637 -18.15025319 84.29475825 -23 82 C-29.97510588 78.49274337 -37.74008971 73.8809029 -40.6875 66.2109375 C-42.65873369 52.26445918 -38.30281456 38.10936066 -30.6875 26.5 C-22.77744074 16.20134517 -13.36196871 10.67517989 -1 7 C-0.67 4.69 -0.34 2.38 0 0 Z " fill="#0C1D26" transform="translate(54,42)"/>
<path d="M0 0 C-0.66 2.31 -1.32 4.62 -2 7 C-1.67 6.67 -1.34 6.34 -1 6 C0.485 6.4640625 0.485 6.4640625 2 6.9375 C4.79107476 7.76574576 7.34897139 8.12984264 10.25 8.3125 C11.4875 8.539375 12.725 8.76625 14 9 C15.5 11.1875 15.5 11.1875 17 14 C18.98288035 15.64484254 21.03924897 17.10897974 23.16015625 18.5703125 C25 20 25 20 27 23 C25.48019531 22.51080078 25.48019531 22.51080078 23.9296875 22.01171875 C18.36546058 20.43011586 12.85569406 20.79187219 7.11621094 20.96435547 C4.94970233 21.00084719 2.79842697 20.9448665 0.6328125 20.87890625 C-7.46142494 20.78805073 -12.21684604 21.30742732 -18.25 27 C-19.05953125 27.9075 -19.8690625 28.815 -20.703125 29.75 C-23.2133264 32.2089728 -24.53061925 32.80858589 -28 33 C-29 32 -29 32 -29.21484375 29.68359375 C-28.84536761 25.06850082 -26.12351532 22.25765401 -23 19 C-18.38502623 15.33105472 -13.34221784 12.46563901 -8 10 C-13.92341666 12.4042893 -18.92061109 15.10940424 -24 19 C-25.32 18.34 -26.64 17.68 -28 17 C-27.34 16.67 -26.68 16.34 -26 16 C-25.34 16.33 -24.68 16.66 -24 17 C-24.103125 16.278125 -24.20625 15.55625 -24.3125 14.8125 C-24 12 -24 12 -22.0625 9.375 C-18.7713189 6.82265547 -16.14861635 5.89594559 -12.2109375 4.7578125 C-7.30928828 3.07774192 -5.40356921 0 0 0 Z " fill="#90C8F8" transform="translate(61,49)"/>
<path d="M0 0 C-3.93801155 2.81286539 -7.43824703 4.47941568 -12 6 C-14.46799585 7.78716941 -14.92322204 8.69986796 -15.6875 11.6875 C-15.790625 12.450625 -15.89375 13.21375 -16 14 C-16.99 14 -17.98 14 -19 14 C-18.01 15.485 -18.01 15.485 -17 17 C-17.67095703 17.67482422 -17.67095703 17.67482422 -18.35546875 18.36328125 C-26.21888556 26.72968848 -30.16835804 35.81733195 -30.0625 47.25 C-30.05347656 48.51328125 -30.04445313 49.7765625 -30.03515625 51.078125 C-30.02355469 52.04234375 -30.01195312 53.0065625 -30 54 C-31.485 54.495 -31.485 54.495 -33 55 C-31.88625 55.309375 -30.7725 55.61875 -29.625 55.9375 C-26 57 -26 57 -24 58 C-22.90963072 60.9737344 -22.96135834 61.88407501 -24 65 C-23.29875 65.0825 -22.5975 65.165 -21.875 65.25 C-18.34727053 66.17027725 -15.93888386 67.88126977 -13 70 C-13.33 70.99 -13.66 71.98 -14 73 C-19.68151926 71.70344817 -23.59405923 69.5816833 -28.25 66.125 C-28.86101563 65.69058594 -29.47203125 65.25617188 -30.1015625 64.80859375 C-36.36351006 60.25569301 -36.36351006 60.25569301 -38 57 C-38.35271406 54.08716976 -38.52332937 51.4732179 -38.5 48.5625 C-38.49572998 47.76207275 -38.49145996 46.96164551 -38.48706055 46.13696289 C-38.27676923 38.70543119 -36.32825459 32.64731511 -33 26 C-32.61585937 25.18144531 -32.23171875 24.36289063 -31.8359375 23.51953125 C-26.05021315 12.0858379 -17.27438207 4.81917971 -5.5 0.0625 C-2 -1 -2 -1 0 0 Z " fill="#6FADE5" transform="translate(53,52)"/>
<path d="M0 0 C0.99 0.33 1.98 0.66 3 1 C3.94921875 3.28515625 3.94921875 3.28515625 4.6875 6.0625 C4.93886719 6.98160156 5.19023438 7.90070313 5.44921875 8.84765625 C5.63097656 9.55792969 5.81273438 10.26820312 6 11 C6.99 11 7.98 11 9 11 C9.59808119 19.29006987 8.85373241 27.50233724 5 35 C2.70703125 36.5078125 2.70703125 36.5078125 0 37 C-2.7890625 36.20703125 -2.7890625 36.20703125 -5.625 34.8125 C-7.03652344 34.14154297 -7.03652344 34.14154297 -8.4765625 33.45703125 C-10.73913865 32.15062118 -12.28780146 30.94776949 -14 29 C-11.520239 21.76736374 -7.65253575 18.32626787 -1 15 C-0.34 15 0.32 15 1 15 C0.67 10.05 0.34 5.1 0 0 Z " fill="#6CB8FB" transform="translate(89,81)"/>
<path d="M0 0 C6.98349792 0.14615944 10.62848973 2.6892597 15.49707031 7.71289062 C17.64799077 9.93608763 17.64799077 9.93608763 20.59082031 9.96289062 C21.31785156 9.87007812 22.04488281 9.77726562 22.79394531 9.68164062 C21.98144531 11.61914062 21.98144531 11.61914062 20.79394531 13.68164062 C19.80394531 14.01164062 18.81394531 14.34164062 17.79394531 14.68164062 C20.10394531 15.34164062 22.41394531 16.00164062 24.79394531 16.68164062 C23.79394531 18.18164062 23.79394531 18.18164062 21.79394531 19.68164062 C14.91620795 20.61421518 11.21799638 18.78874102 5.79394531 14.68164062 C5.18808594 14.22789063 4.58222656 13.77414063 3.95800781 13.30664062 C2.51307427 12.16697473 1.14490197 10.93127553 -0.20605469 9.68164062 C-0.20605469 9.02164063 -0.20605469 8.36164062 -0.20605469 7.68164062 C-1.19605469 8.17664062 -1.19605469 8.17664062 -2.20605469 8.68164062 C-5.53401339 8.91963767 -8.87051555 8.86682428 -12.20605469 8.86914062 C-13.13417969 8.88138672 -14.06230469 8.89363281 -15.01855469 8.90625 C-15.90542969 8.90818359 -16.79230469 8.91011719 -17.70605469 8.91210938 C-18.92808594 8.91827271 -18.92808594 8.91827271 -20.17480469 8.92456055 C-22.20605469 8.68164062 -22.20605469 8.68164062 -24.20605469 6.68164062 C-23.55371094 4.72460938 -23.55371094 4.72460938 -22.20605469 2.68164062 C-19.63964844 2.10742188 -19.63964844 2.10742188 -16.64355469 1.99414062 C-10.9090313 1.73314151 -5.97601368 0.14520687 0 0 Z " fill="#5FD4F8" transform="translate(112.2060546875,48.318359375)"/>
<path d="M0 0 C-0.91523437 0.40992188 -1.83046875 0.81984375 -2.7734375 1.2421875 C-4.55621094 2.05042969 -4.55621094 2.05042969 -6.375 2.875 C-7.55835937 3.40867187 -8.74171875 3.94234375 -9.9609375 4.4921875 C-13.02247043 5.8096989 -13.02247043 5.8096989 -15 8 C-16.10293459 8.89734981 -17.20724823 9.79300578 -18.3125 10.6875 C-28.43524608 19.46614702 -30.88838756 30.57555428 -31.84277344 43.61450195 C-31.92060059 44.79532349 -31.92060059 44.79532349 -32 46 C-31.22809326 45.98952637 -30.45618652 45.97905273 -29.66088867 45.96826172 C-26.16979212 45.92673546 -22.67874751 45.90068443 -19.1875 45.875 C-17.97255859 45.85824219 -16.75761719 45.84148437 -15.50585938 45.82421875 C-14.34248047 45.81777344 -13.17910156 45.81132813 -11.98046875 45.8046875 C-10.37014771 45.78897705 -10.37014771 45.78897705 -8.72729492 45.77294922 C-6 46 -6 46 -3 48 C-4.21816406 47.98839844 -5.43632813 47.97679687 -6.69140625 47.96484375 C-8.31510262 47.95545822 -9.93880067 47.94635884 -11.5625 47.9375 C-12.36236328 47.92912109 -13.16222656 47.92074219 -13.98632812 47.91210938 C-18.77163104 47.89257753 -23.28145051 48.19562982 -28 49 C-21.16249497 53.7165436 -15.26737199 56.08838864 -7 57 C-7 57.66 -7 58.32 -7 59 C-4.39674384 59.36247871 -1.79279598 59.71527655 0.8125 60.0625 C1.55048828 60.16626953 2.28847656 60.27003906 3.04882812 60.37695312 C6.43174779 60.82086566 8.72055025 61.09314992 12 60 C12.556875 60.309375 13.11375 60.61875 13.6875 60.9375 C19.16933833 63.45618248 26.20169297 61.82832958 32 61 C32 60.34 32 59.68 32 59 C30.02 58.34 28.04 57.68 26 57 C29.79268293 55.73577236 31.29268293 56.76422764 35 58 C35.99 57.67 36.98 57.34 38 57 C42.21101611 46.29050225 43.13940013 32.44412254 38.65625 21.734375 C38 20 38 20 38 17 C42.95135084 24.02772377 43.20364748 28.8717817 43.25 37.25 C43.270625 38.16652344 43.29125 39.08304688 43.3125 40.02734375 C43.35688413 47.80566294 41.81255148 54.64743204 37 61 C35.21875 61.53515625 35.21875 61.53515625 33 62 C31.30993681 62.49126639 29.62251817 62.99169889 27.9375 63.5 C27.08027344 63.7578125 26.22304687 64.015625 25.33984375 64.28125 C23.55239461 64.83031618 21.77392313 65.40869229 20 66 C19.01 65.505 19.01 65.505 18 65 C16.55003573 64.74806736 15.09262402 64.53815495 13.6328125 64.3515625 C12.75214111 64.23474121 11.87146973 64.11791992 10.96411133 63.99755859 C10.02720459 63.87461426 9.09029785 63.75166992 8.125 63.625 C-10.96062785 61.01968608 -10.96062785 61.01968608 -17 58 C-18.53668865 57.77532169 -20.07968054 57.59203195 -21.625 57.4375 C-22.44226562 57.35371094 -23.25953125 57.26992187 -24.1015625 57.18359375 C-25.04128906 57.09271484 -25.04128906 57.09271484 -26 57 C-25.01 56.34 -24.02 55.68 -23 55 C-27.82624485 51.15870308 -30.83543524 49.37742233 -37 49 C-36.67 48.34 -36.34 47.68 -36 47 C-35.01 47 -34.02 47 -33 47 C-33.33 46.34 -33.66 45.68 -34 45 C-35.24197756 34.26576534 -32.44314916 24.52744195 -26.25 15.6875 C-20.75661933 9.02501524 -9.51021627 -3.17007209 0 0 Z " fill="#0C1B36" transform="translate(56,59)"/>
<path d="M0 0 C0 0.99 0 1.98 0 3 C-0.33 3.33 -0.66 3.66 -1 4 C-1.04063832 5.66617115 -1.042721 7.33388095 -1 9 C0.11375 8.79375 1.2275 8.5875 2.375 8.375 C3.57125 8.25125 4.7675 8.1275 6 8 C6.66 8.66 7.32 9.32 8 10 C7.828125 11.953125 7.828125 11.953125 7.25 14.25 C7.04890625 15.05179688 6.8478125 15.85359375 6.640625 16.6796875 C5.48236025 20.87486593 4.42546548 24.36180178 2 28 C1.34 28 0.68 28 0 28 C0.33 29.32 0.66 30.64 1 32 C3.97 32 6.94 32 10 32 C10 32.33 10 32.66 10 33 C3.4 33 -3.2 33 -10 33 C-10.60653303 20.4144397 -8.66736907 9.56299721 0 0 Z " fill="#0669FB" transform="translate(34,72)"/>
<path d="M0 0 C3.69641133 0.58145796 5.49588317 2.08536882 8.1875 4.625 C11.21190173 7.43585612 14.23593777 9.89793288 17.625 12.25 C23.60943593 16.84856656 27.91716021 23.39630988 29.65234375 30.7734375 C29.9375 33.25 29.9375 33.25 30 37 C27.35261084 38.4606285 26.10551666 39 23 39 C22.86464844 38.38253906 22.72929688 37.76507813 22.58984375 37.12890625 C19.6757058 25.66430364 11.66432335 16.87488157 1.74609375 10.56640625 C0 9 0 9 -0.390625 6.73828125 C-0.34421875 5.93777344 -0.2978125 5.13726562 -0.25 4.3125 C-0.21390625 3.50425781 -0.1778125 2.69601563 -0.140625 1.86328125 C-0.09421875 1.24839844 -0.0478125 0.63351563 0 0 Z " fill="#9BCBF5" transform="translate(76,51)"/>
<path d="M0 0 C6 3 6 3 7.875 4 C13.92409139 6.84663124 19.81085096 8.56139604 26.375 9.625 C27.11451904 9.75197266 27.85403809 9.87894531 28.6159668 10.00976562 C33.40598932 10.81046078 38.16261288 11.38743842 43.01953125 11.59375 C45.57350284 12.11764161 47.03067203 13.3360285 49 15 C41.22882846 15.9880871 34.59183029 16.03232625 27 14 C27 14.99 27 15.98 27 17 C27.99 17.33 28.98 17.66 30 18 C29.34 18.33 28.68 18.66 28 19 C31.97915085 19.02934144 35.95827337 19.04691265 39.9375 19.0625 C41.05447266 19.07087891 42.17144531 19.07925781 43.32226562 19.08789062 C49.63992667 19.10641749 55.73763227 18.84339417 62 18 C49.42979584 24.41973038 32.18237145 23.56414806 18.95703125 19.65625 C18.31121094 19.4396875 17.66539063 19.223125 17 19 C17 18.34 17 17.68 17 17 C14.69 16.34 12.38 15.68 10 15 C10 13.68 10 12.36 10 11 C6.7 9.35 3.4 7.7 0 6 C0 4.02 0 2.04 0 0 Z " fill="#749FC5" transform="translate(29,111)"/>
<path d="M0 0 C7.99815778 -0.37104856 14.46050455 0.36390829 22 3 C23.32949938 3.34831062 24.66180796 3.68674141 26 4 C26 4.66 26 5.32 26 6 C25.41992188 5.96519531 24.83984375 5.93039063 24.2421875 5.89453125 C19.00253301 5.71295906 15.55833721 6.10934713 11 9 C10.34 9.66 9.68 10.32 9 11 C8.34 10.67 7.68 10.34 7 10 C6.67 10.99 6.34 11.98 6 13 C4.3563186 14.68933922 2.6857124 16.35259924 1 18 C0.0933059 19.09526581 -0.80279382 20.19939786 -1.6875 21.3125 C-2.8321875 22.6428125 -2.8321875 22.6428125 -4 24 C-4.66 24 -5.32 24 -6 24 C-6.28875 24.928125 -6.5775 25.85625 -6.875 26.8125 C-8 30 -8 30 -10 33 C-10.99 33 -11.98 33 -13 33 C-12.43615505 28.35708922 -10.38195384 24.86439244 -8 20.9375 C-4.76823419 15.77418146 -4.76823419 15.77418146 -3 10 C-2.01 10 -1.02 10 0 10 C-0.2784375 8.63875 -0.2784375 8.63875 -0.5625 7.25 C-0.96723576 4.24339146 -0.82524731 2.8119538 0 0 Z " fill="#0688FE" transform="translate(67,72)"/>
<path d="M0 0 C0.66 0 1.32 0 2 0 C2.2236337 1.41433206 2.42826476 2.83167618 2.625 4.25 C2.74101563 5.03890625 2.85703125 5.8278125 2.9765625 6.640625 C3.00390268 9.39286966 2.51202054 10.71733673 1 13 C0.01 13.66 -0.98 14.32 -2 15 C-2.042721 13.33388095 -2.04063832 11.66617115 -2 10 C-1.67 9.67 -1.34 9.34 -1 9 C-1.66 8.67 -2.32 8.34 -3 8 C-3 8.99 -3 9.98 -3 11 C-3.66 11 -4.32 11 -5 11 C-4.79375 11.598125 -4.5875 12.19625 -4.375 12.8125 C-4 15 -4 15 -6 18 C-12.72568145 20.83745667 -20.61116706 20.26738093 -27.75 20.1875 C-28.85988281 20.18685547 -29.96976563 20.18621094 -31.11328125 20.18554688 C-35.89499921 20.1596531 -40.32169659 20.06639363 -45 19 C-43.68 18.34 -42.36 17.68 -41 17 C-41 16.01 -41 15.02 -41 14 C-40.16597656 14.08378906 -39.33195312 14.16757813 -38.47265625 14.25390625 C-31.76204941 14.8611662 -25.66283545 15.01636473 -19 14 C-19.33 13.34 -19.66 12.68 -20 12 C-19.03578125 11.84144531 -18.0715625 11.68289062 -17.078125 11.51953125 C-15.81484375 11.28621094 -14.5515625 11.05289063 -13.25 10.8125 C-11.99703125 10.59207031 -10.7440625 10.37164062 -9.453125 10.14453125 C-4.67443772 8.56064508 -3.07118907 5.98169978 -0.75 1.6875 C-0.5025 1.130625 -0.255 0.57375 0 0 Z " fill="#ACD3F7" transform="translate(97,111)"/>
<path d="M0 0 C3.68623011 1.61272567 4.75355 2.630325 7 6 C6.6875 9.25 6.6875 9.25 6 13 C5.814375 14.299375 5.62875 15.59875 5.4375 16.9375 C5.293125 17.948125 5.14875 18.95875 5 20 C4.34 20 3.68 20 3 20 C2.34 22.97 1.68 25.94 1 29 C-0.65 27.35 -2.3 25.7 -4 24 C-3.01 23.67 -2.02 23.34 -1 23 C-0.26676204 20.98491642 -0.26676204 20.98491642 0 19 C-0.99 18.67 -1.98 18.34 -3 18 C-3 18.99 -3 19.98 -3 21 C-3.99 20.67 -4.98 20.34 -6 20 C-6 19.01 -6 18.02 -6 17 C-7.98 17 -9.96 17 -12 17 C-12 16.34 -12 15.68 -12 15 C-8.7 15 -5.4 15 -2 15 C-2 14.01 -2 13.02 -2 12 C-3.32 12 -4.64 12 -6 12 C-5.67 10.68 -5.34 9.36 -5 8 C-6.65 7.67 -8.3 7.34 -10 7 C-9.67 5.35 -9.34 3.7 -9 2 C-11.0245738 3.93254772 -12.42105792 5.63158688 -14 8 C-13.6875 5.125 -13.6875 5.125 -13 2 C-8.74979338 -0.83347108 -4.98936743 -0.52603554 0 0 Z " fill="#39352D" transform="translate(81,7)"/>
<path d="M0 0 C14.19931634 -0.71794296 14.19931634 -0.71794296 20.37890625 3.04296875 C22.50035043 4.2953876 24.5731184 4.6966398 27 5 C27 3.68 27 2.36 27 1 C28.65 1 30.3 1 32 1 C32.495 1.99 32.495 1.99 33 3 C33.68102783 2.98952637 34.36205566 2.97905273 35.0637207 2.96826172 C38.14660966 2.92671122 41.22943971 2.90067689 44.3125 2.875 C45.38435547 2.85824219 46.45621094 2.84148438 47.56054688 2.82421875 C48.58857422 2.81777344 49.61660156 2.81132813 50.67578125 2.8046875 C51.62364502 2.79421387 52.57150879 2.78374023 53.5480957 2.77294922 C56 3 56 3 59 5 C57.96359375 5.06058594 56.9271875 5.12117188 55.859375 5.18359375 C54.48957127 5.26803371 53.11978025 5.35267997 51.75 5.4375 C50.72712891 5.49647461 50.72712891 5.49647461 49.68359375 5.55664062 C46.34014396 5.76763503 43.22410527 6.09498799 40 7 C37.33864152 7.39337598 34.67278227 7.6881754 32 8 C31.67 9.98 31.34 11.96 31 14 C32.26457031 14.87011719 32.26457031 14.87011719 33.5546875 15.7578125 C34.66202165 16.54608427 35.76876154 17.33519131 36.875 18.125 C37.43058594 18.50398438 37.98617187 18.88296875 38.55859375 19.2734375 C42.46260731 22.09561598 43.92341776 24.33481029 45 29 C45.20625 29.78375 45.4125 30.5675 45.625 31.375 C45.74875 31.91125 45.8725 32.4475 46 33 C43.80602166 30.31847092 41.81921123 27.70621824 40 24.75 C36.8195763 20.19371902 32.32232214 17.29567133 27.83984375 14.11328125 C25.29427017 12.21898234 23.09147782 10.38237881 21 8 C21 7.34 21 6.68 21 6 C15.68468311 4.22589949 11.14381195 3.7422332 5.5625 3.875 C4.46518555 3.88853516 4.46518555 3.88853516 3.34570312 3.90234375 C1.56365702 3.92563847 -0.21821759 3.9614981 -2 4 C-1.34 2.68 -0.68 1.36 0 0 Z " fill="#034156" transform="translate(58,44)"/>
<path d="M0 0 C0.63625047 3.18125234 0.85698739 5.84732517 0 9 C-2.34120791 10.88634466 -4.75912921 12.09856861 -7.44140625 13.44921875 C-11.30854184 15.7931162 -13.07273906 19.00346942 -15 23 C-14.01 23.33 -13.02 23.66 -12 24 C-14 25 -14 25 -16.1640625 24.44140625 C-16.97617188 24.15136719 -17.78828125 23.86132812 -18.625 23.5625 C-19.85089844 23.13130859 -19.85089844 23.13130859 -21.1015625 22.69140625 C-21.72804688 22.46324219 -22.35453125 22.23507813 -23 22 C-22.60490085 16.60031159 -20.6859303 12.87022682 -17 9 C-6.06882591 0 -6.06882591 0 0 0 Z " fill="#349FFE" transform="translate(90,87)"/>
<path d="M0 0 C0 2.31 0 4.62 0 7 C-1.794375 7.5878125 -1.794375 7.5878125 -3.625 8.1875 C-7.90271947 9.76509867 -10.60245786 12.00692716 -14 15 C-14.66 15 -15.32 15 -16 15 C-16.268125 15.556875 -16.53625 16.11375 -16.8125 16.6875 C-18 19 -18 19 -19.625 21.4375 C-21.12991342 24.24211138 -21.2682825 25.87003753 -21 29 C-25.75 28.125 -25.75 28.125 -28 27 C-27.14012696 18.97844464 -22.5270908 12.95527456 -16.421875 7.83984375 C-13.99288768 6.12718952 -11.54765922 4.52942674 -9 3 C-7.73736328 2.1646875 -7.73736328 2.1646875 -6.44921875 1.3125 C-4 0 -4 0 0 0 Z " fill="#1B92FF" transform="translate(89,81)"/>
<path d="M0 0 C-2 2 -2 2 -4.0625 2.5 C-4.701875 2.665 -5.34125 2.83 -6 3 C-6.33 3.66 -6.66 4.32 -7 5 C-5.783125 4.95875 -4.56625 4.9175 -3.3125 4.875 C3.14082602 4.864724 11.16141745 5.08070873 17 8 C17 9.32 17 10.64 17 12 C17.99 12 18.98 12 20 12 C20 12.66 20 13.32 20 14 C20.66 14.33 21.32 14.66 22 15 C3.49466951 13.66311301 3.49466951 13.66311301 -2 10 C-3.40577773 9.52868305 -4.82408233 9.09383668 -6.25 8.6875 C-10.92018462 7.19701555 -14.19550863 5.07597174 -18 2 C-18 1.67 -18 1.34 -18 1 C-11.95170514 0.10395632 -6.1105424 -0.11269443 0 0 Z " fill="#0918F3" transform="translate(45,106)"/>
<path d="M0 0 C-0.18997549 3.86987116 -0.99687362 4.9968867 -3.80078125 7.7890625 C-4.96109003 8.74694569 -6.13211405 9.69196963 -7.3125 10.625 C-7.89451172 11.10195312 -8.47652344 11.57890625 -9.07617188 12.0703125 C-10.70423829 13.39784117 -12.34932727 14.70077617 -14 16 C-15.12728516 16.91845703 -15.12728516 16.91845703 -16.27734375 17.85546875 C-18 19 -18 19 -20.25 18.6875 C-20.8275 18.460625 -21.405 18.23375 -22 18 C-22.32092942 13.91349868 -21.72953453 12.01014441 -19.1875 8.8125 C-18.66542969 8.13832031 -18.14335938 7.46414062 -17.60546875 6.76953125 C-14.84919417 3.73159357 -11.74624844 2.44086478 -8 1 C-5.29120665 -0.35439668 -2.99066732 -0.06501451 0 0 Z " fill="#EEF6FD" transform="translate(54,63)"/>
<path d="M0 0 C8.16301547 -0.5182867 14.04691397 0.91466456 20.5625 6 C22 8 22 8 22 12 C18.27992915 12.46500886 16.88011206 11.93024702 13.5625 10 C7.79836376 6.87499894 1.37050699 7.506225 -5 8 C-5.99 8.33 -6.98 8.66 -8 9 C-7.67 7.35 -7.34 5.7 -7 4 C-6.030625 3.71125 -5.06125 3.4225 -4.0625 3.125 C-0.89335797 2.35785318 -0.89335797 2.35785318 0 0 Z " fill="#03BBF0" transform="translate(63,37)"/>
<path d="M0 0 C3.32739873 0.30249079 5.5627594 0.71234171 8.375 2.5625 C10.6562189 5.98432835 10.63100919 9.06593037 10 13 C8.875 16 8.875 16 7 18 C4.0625 18.625 4.0625 18.625 1 18 C-1.5 16.125 -1.5 16.125 -3 13 C-2.69017146 8.47506226 -1.42806864 4.28420591 0 0 Z " fill="#82BDF3" transform="translate(84,27)"/>
<path d="M0 0 C0.99 0.33 1.98 0.66 3 1 C3.87890625 7.15234375 3.87890625 7.15234375 4 9 C3.67 9.33 3.34 9.66 3 10 C4.11375 10.309375 5.2275 10.61875 6.375 10.9375 C10 12 10 12 12 13 C13.09036928 15.9737344 13.03864166 16.88407501 12 20 C12.70125 20.0825 13.4025 20.165 14.125 20.25 C17.65272947 21.17027725 20.06111614 22.88126977 23 25 C22.67 25.99 22.34 26.98 22 28 C14.91669081 26.74074503 9.27329956 22.81558097 4 18 C4 17.01 4 16.02 4 15 C3.01 14.67 2.02 14.34 1 14 C-0.93122924 11.09353207 -1.25014915 8.75820329 -1.1875 5.3125 C-1.18105469 4.52488281 -1.17460937 3.73726563 -1.16796875 2.92578125 C-1 1 -1 1 0 0 Z " fill="#9BCEFA" transform="translate(17,97)"/>
<path d="M0 0 C4.28700679 3.64877263 5.0959611 8.63183105 6 14 C6.06481082 19.1704632 5.5202268 23.44699767 3 28 C2.34 28 1.68 28 1 28 C0.67 26.35 0.34 24.7 0 23 C-0.61875 23.825 -1.2375 24.65 -1.875 25.5 C-2.926875 26.7375 -2.926875 26.7375 -4 28 C-4.66 28 -5.32 28 -6 28 C-5.835 27.319375 -5.67 26.63875 -5.5 25.9375 C-4.40185495 19.48589781 -5.25997858 14.19882629 -7 8 C-6.01 8.495 -6.01 8.495 -5 9 C-5 9.66 -5 10.32 -5 11 C-2.69 11.66 -0.38 12.32 2 13 C2.33 11.68 2.66 10.36 3 9 C2.01 8.67 1.02 8.34 0 8 C0 5.36 0 2.72 0 0 Z " fill="#04A1D0" transform="translate(116,67)"/>
<path d="M0 0 C0.99 0.33 1.98 0.66 3 1 C3.94921875 3.28515625 3.94921875 3.28515625 4.6875 6.0625 C4.93886719 6.98160156 5.19023438 7.90070313 5.44921875 8.84765625 C5.63097656 9.55792969 5.81273438 10.26820312 6 11 C6.99 11 7.98 11 9 11 C9 13.31 9 15.62 9 18 C7.948125 17.938125 6.89625 17.87625 5.8125 17.8125 C-0.54602796 18.12521449 -4.44765942 21.86150857 -9 26 C-10.33333333 29 -10.33333333 29 -9 32 C-11 32 -11 32 -12.625 30.5 C-13.07875 30.005 -13.5325 29.51 -14 29 C-11.520239 21.76736374 -7.65253575 18.32626787 -1 15 C-0.34 15 0.32 15 1 15 C0.67 10.05 0.34 5.1 0 0 Z " fill="#5BB1FB" transform="translate(89,81)"/>
<path d="M0 0 C0.99 0 1.98 0 3 0 C2.67515625 1.27230469 2.67515625 1.27230469 2.34375 2.5703125 C0.26568026 11.32514333 -0.369628 18.99202874 0 28 C-0.66 28 -1.32 28 -2 28 C-2.66 25.36 -3.32 22.72 -4 20 C-4.66 20 -5.32 20 -6 20 C-6.0272415 21.41655793 -6.04650467 22.83327045 -6.0625 24.25 C-6.07410156 25.03890625 -6.08570312 25.8278125 -6.09765625 26.640625 C-6.00385306 28.90691002 -5.63241063 30.8288895 -5 33 C-3.68 33.33 -2.36 33.66 -1 34 C-1.33 34.66 -1.66 35.32 -2 36 C-5.16115776 34.63016497 -5.9927092 34.0109362 -8 31 C-8.25878906 29.08642578 -8.25878906 29.08642578 -8.265625 26.9453125 C-8.26820312 26.16542969 -8.27078125 25.38554688 -8.2734375 24.58203125 C-8.26570312 23.77121094 -8.25796875 22.96039063 -8.25 22.125 C-8.25773438 21.32191406 -8.26546875 20.51882812 -8.2734375 19.69140625 C-8.25941216 15.43471407 -8.21791007 11.77044712 -6 8 C-5.01 7.67 -4.02 7.34 -3 7 C-1.28432339 3.49705129 -1.28432339 3.49705129 0 0 Z " fill="#9ACFFD" transform="translate(23,78)"/>
<path d="M0 0 C4.74042464 1.33324443 7.52221476 4.1650912 10.9375 7.5390625 C13.46946977 9.33254109 14.96317976 9.2847019 18 9 C17.1875 10.9375 17.1875 10.9375 16 13 C15.01 13.33 14.02 13.66 13 14 C15.31 14.66 17.62 15.32 20 16 C19 17.5 19 17.5 17 19 C11.00215654 19.81326691 7.70957719 18.79490471 2.765625 15.37890625 C0.66219449 13.73618287 -1.22652735 11.99515673 -3 10 C-0.69 10.33 1.62 10.66 4 11 C4 12.32 4 13.64 4 15 C4.66 15 5.32 15 6 15 C6.41831404 11.71000718 6.41831404 11.71000718 6 8 C3.64573501 5.22877725 3.64573501 5.22877725 1 3 C0.67 2.01 0.34 1.02 0 0 Z " fill="#087495" transform="translate(117,49)"/>
<path d="M0 0 C-0.60183749 2.02045442 -1.27306096 4.02111039 -2 6 C-2.99 6.495 -2.99 6.495 -4 7 C-4.33 7.66 -4.66 8.32 -5 9 C-6.66533458 9.64389035 -8.35883933 10.21570202 -10.0625 10.75 C-15.5444729 12.63934836 -19.62496268 15.23922293 -24 19 C-25.32 18.34 -26.64 17.68 -28 17 C-27.34 16.67 -26.68 16.34 -26 16 C-25.34 16.33 -24.68 16.66 -24 17 C-24.103125 16.278125 -24.20625 15.55625 -24.3125 14.8125 C-24 12 -24 12 -22.0625 9.375 C-18.7713189 6.82265547 -16.14861635 5.89594559 -12.2109375 4.7578125 C-7.30928828 3.07774192 -5.40356921 0 0 0 Z " fill="#8BC3F6" transform="translate(61,49)"/>
<path d="M0 0 C0.66 0.33 1.32 0.66 2 1 C1.43152344 1.54785156 0.86304687 2.09570312 0.27734375 2.66015625 C-6.57799915 9.69861349 -10.37124605 16.953245 -14 26 C-14.38414063 26.95261719 -14.76828125 27.90523437 -15.1640625 28.88671875 C-16.264956 32.98677539 -16.40628199 36.83419349 -16.4375 41.0625 C-16.47037109 41.85205078 -16.50324219 42.64160156 -16.53710938 43.45507812 C-16.57642111 47.71861404 -16.44571496 49.44398947 -13.6953125 52.875 C-12.36113281 53.926875 -12.36113281 53.926875 -11 55 C-10.40058594 55.52464844 -9.80117188 56.04929688 -9.18359375 56.58984375 C-2.16346514 62.00806382 5.75365361 65.80397544 14 69 C8.6995809 70.76680637 3.84974681 67.29475825 -1 65 C-7.97510588 61.49274337 -15.74008971 56.8809029 -18.6875 49.2109375 C-20.67377146 35.15806689 -16.28210732 20.89917382 -8.4375 9.3125 C-5.86401719 5.92122154 -3.1487961 2.86254191 0 0 Z " fill="#070B0E" transform="translate(32,59)"/>
<path d="M0 0 C2.15059309 3.53186832 2.3797728 6.66287993 2.625 10.75 C2.69976562 11.92046875 2.77453125 13.0909375 2.8515625 14.296875 C2.90054688 15.18890625 2.94953125 16.0809375 3 17 C3.66 17 4.32 17 5 17 C4.34 19.97 3.68 22.94 3 26 C3.99 23.03 4.98 20.06 6 17 C7.21570797 21.86283188 6.21457747 24.69120253 4 29 C0.76663691 33.87857432 -2.09284394 36.73418084 -8 38 C-7.67 35.69 -7.34 33.38 -7 31 C-6.34 31 -5.68 31 -5 31 C-5 30.01 -5 29.02 -5 28 C-4.01 28.33 -3.02 28.66 -2 29 C-2.495 31.475 -2.495 31.475 -3 34 C-1.33358994 33.009245 -1.33358994 33.009245 0 31 C0.26510575 27.02341379 0.11574021 23.69027793 -0.54296875 19.76171875 C-1.05108791 15.57950722 -0.8953988 11.74478027 -0.5625 7.5625 C-0.51029297 6.83095703 -0.45808594 6.09941406 -0.40429688 5.34570312 C-0.27615124 3.56331378 -0.1390184 1.7815743 0 0 Z " fill="#6A93B7" transform="translate(99,91)"/>
<path d="M0 0 C4.11106183 3.56292026 5.72358635 6.86533753 6.20507812 12.32568359 C6.30499859 15.01181083 6.32196444 17.68709881 6.3125 20.375 C6.32861328 21.2825 6.34472656 22.19 6.36132812 23.125 C6.36688687 30.84054499 4.76821192 37.70596026 0 44 C-1.78125 44.53515625 -1.78125 44.53515625 -4 45 C-5.69006319 45.49126639 -7.37748183 45.99169889 -9.0625 46.5 C-10.34833984 46.88671875 -10.34833984 46.88671875 -11.66015625 47.28125 C-13.44760539 47.83031618 -15.22607687 48.40869229 -17 49 C-19.73812607 48.54451823 -22.3201176 47.74685247 -25 47 C-25 46.01 -25 45.02 -25 44 C-24.505 44.165 -24.01 44.33 -23.5 44.5 C-17.33014871 45.73397026 -11.15895866 44.87985124 -5 44 C-5 43.34 -5 42.68 -5 42 C-6.98 41.34 -8.96 40.68 -11 40 C-7.20731707 38.73577236 -5.70731707 39.76422764 -2 41 C-0.515 40.505 -0.515 40.505 1 40 C5.53372847 28.46977697 5.94745887 14.38171885 1 3 C0.67 2.01 0.34 1.02 0 0 Z " fill="#15222E" transform="translate(93,76)"/>
<path d="M0 0 C0.391875 0.45375 0.78375 0.9075 1.1875 1.375 C0.8575 2.035 0.5275 2.695 0.1875 3.375 C-0.98941406 2.88128906 -2.16632813 2.38757813 -3.37890625 1.87890625 C-10.06742025 -0.35234534 -16.78116881 0.12920072 -23.75 0.3125 C-26.36338611 0.3754846 -28.97590656 0.42343749 -31.58984375 0.46484375 C-32.73702881 0.49441162 -33.88421387 0.52397949 -35.06616211 0.55444336 C-37.8125 0.375 -37.8125 0.375 -39.8125 -1.625 C-37.81118844 -3.62631156 -33.93626728 -3.04303185 -31.1875 -3.1875 C-30.42856445 -3.2285083 -29.66962891 -3.2695166 -28.88769531 -3.31176758 C-5.02995478 -4.50961463 -5.02995478 -4.50961463 0 0 Z " fill="#105EA8" transform="translate(87.8125,72.625)"/>
<path d="M0 0 C1.875 0.9375 1.875 0.9375 3.875 3.9375 C4.24866113 5.93035937 4.58240515 7.93113529 4.875 9.9375 C5.205 10.9275 5.535 11.9175 5.875 12.9375 C5.545 13.5975 5.215 14.2575 4.875 14.9375 C1.83999013 14.60027668 0.12841293 14.13298997 -2.3125 12.25 C-4.39746708 9.58986958 -5.2407226 7.17985046 -6.125 3.9375 C-2.71630435 -0.0798913 -2.71630435 -0.0798913 0 0 Z " fill="#80E2FE" transform="translate(113.125,65.0625)"/>
<path d="M0 0 C0.66 0 1.32 0 2 0 C2.2236337 1.41433206 2.42826476 2.83167618 2.625 4.25 C2.79902344 5.43335937 2.79902344 5.43335937 2.9765625 6.640625 C3.00390268 9.39286966 2.51202054 10.71733673 1 13 C0.01 13.66 -0.98 14.32 -2 15 C-2.042721 13.33388095 -2.04063832 11.66617115 -2 10 C-1.67 9.67 -1.34 9.34 -1 9 C-1.66 8.67 -2.32 8.34 -3 8 C-3 8.99 -3 9.98 -3 11 C-3.66 11 -4.32 11 -5 11 C-5 11.66 -5 12.32 -5 13 C-9.92737019 14.97094808 -13.78020872 15.1799928 -19 15 C-19.33 14.01 -19.66 13.02 -20 12 C-19.03578125 11.84144531 -18.0715625 11.68289062 -17.078125 11.51953125 C-15.81484375 11.28621094 -14.5515625 11.05289063 -13.25 10.8125 C-11.99703125 10.59207031 -10.7440625 10.37164062 -9.453125 10.14453125 C-4.67443772 8.56064508 -3.07118907 5.98169978 -0.75 1.6875 C-0.5025 1.130625 -0.255 0.57375 0 0 Z " fill="#6EACE4" transform="translate(97,111)"/>
<path d="M0 0 C5.17439941 0.11498665 7.98508826 1.48816362 12.25 4.4375 C17.68540846 8.1163895 22.51941288 9.38578575 29 10 C29 10.66 29 11.32 29 12 C31.60325616 12.36247871 34.20720402 12.71527655 36.8125 13.0625 C37.91948242 13.2181543 37.91948242 13.2181543 39.04882812 13.37695312 C42.43174779 13.82086566 44.72055025 14.09314992 48 13 C48.495 14.485 48.495 14.485 49 16 C43.84177678 17.68716884 39.14283278 16.28687367 34 15.1875 C33.11054687 15.00896484 32.22109375 14.83042969 31.3046875 14.64648438 C26.99145763 13.75486895 23.07592696 12.69037545 19 11 C16.5679241 10.55747943 16.5679241 10.55747943 14.1875 10.375 C13.39730469 10.30023438 12.60710938 10.22546875 11.79296875 10.1484375 C11.20128906 10.09945312 10.60960937 10.05046875 10 10 C10.99 9.34 11.98 8.68 13 8 C8.17375515 4.15870308 5.16456476 2.37742233 -1 2 C-0.67 1.34 -0.34 0.68 0 0 Z " fill="#1C2C4A" transform="translate(20,106)"/>
<path d="M0 0 C1.32 0.33 2.64 0.66 4 1 C4.41750113 7.05376634 4.11311805 10.181776 0 15 C-3 16 -3 16 -5.1875 15.0625 C-5.785625 14.711875 -6.38375 14.36125 -7 14 C-4.66666667 9.33333333 -2.33333333 4.66666667 0 0 Z " fill="#F7FAFE" transform="translate(90,101)"/>
<path d="M0 0 C0.33 0 0.66 0 1 0 C1 1.98 1 3.96 1 6 C-0.794375 6.5878125 -0.794375 6.5878125 -2.625 7.1875 C-6.90271947 8.76509867 -9.60245786 11.00692716 -13 14 C-13.66 14 -14.32 14 -15 14 C-15.28617188 14.57234375 -15.57234375 15.1446875 -15.8671875 15.734375 C-18.43359375 20.8671875 -18.43359375 20.8671875 -21 26 C-21.99 25.67 -22.98 25.34 -24 25 C-22.92290019 17.99885123 -17.25014638 12.37000488 -12 8 C-9.71701963 6.59070596 -7.41806106 5.33344291 -5.015625 4.140625 C-2.96772904 2.98173814 -1.61405504 1.69184083 0 0 Z " fill="#289AFF" transform="translate(88,82)"/>
<path d="M0 0 C2.25 0.0625 2.25 0.0625 5 1 C8.85067636 6.13423515 9.71286712 10.66872003 10 17 C7.35261084 18.4606285 6.10551666 19 3 19 C3.03480469 18.19175781 3.06960937 17.38351563 3.10546875 16.55078125 C3.13253906 15.48214844 3.15960938 14.41351563 3.1875 13.3125 C3.22230469 12.25675781 3.25710937 11.20101562 3.29296875 10.11328125 C2.96495592 6.62759828 1.9186507 4.87545813 0 2 C0 1.34 0 0.68 0 0 Z " fill="#F3F8FD" transform="translate(96,71)"/>
<path d="M0 0 C1.32 0.33 2.64 0.66 4 1 C3.9071875 2.3921875 3.9071875 2.3921875 3.8125 3.8125 C3.67622737 6.97943248 3.67622737 6.97943248 5.5 8.75 C5.995 9.1625 6.49 9.575 7 10 C7 10.66 7 11.32 7 12 C7.55429688 12.21914063 8.10859375 12.43828125 8.6796875 12.6640625 C11.76714194 14.44168778 13.74797468 16.72834196 16.125 19.375 C16.99382812 20.33148438 17.86265625 21.28796875 18.7578125 22.2734375 C22.40832011 26.71255651 23.26187924 29.23865661 23 35 C22.72542969 34.42894531 22.45085937 33.85789063 22.16796875 33.26953125 C17.66053016 24.51092984 11.84676362 17.45790339 3.5625 12.125 C1.07074314 10.35820515 0.13735551 9.64738099 -0.50390625 6.625 C-0.50036886 4.36107123 -0.35738704 2.23366901 0 0 Z " fill="#80BBF0" transform="translate(76,51)"/>
<path d="M0 0 C0.66 0 1.32 0 2 0 C1.67 1.65 1.34 3.3 1 5 C2.65 4.67 4.3 4.34 6 4 C6.33 4.99 6.66 5.98 7 7 C6.34 7 5.68 7 5 7 C5 7.99 5 8.98 5 10 C6.32 10 7.64 10 9 10 C9.33 11.32 9.66 12.64 10 14 C5.71 13.67 1.42 13.34 -3 13 C-2.25 3.375 -2.25 3.375 0 0 Z " fill="#534E46" transform="translate(70,9)"/>
<path d="M0 0 C1.62490954 -0.02698189 3.24994633 -0.04638757 4.875 -0.0625 C5.77992187 -0.07410156 6.68484375 -0.08570313 7.6171875 -0.09765625 C10 0 10 0 12 1 C12 3.31 12 5.62 12 8 C10.41590006 7.88512252 8.83271037 7.75765492 7.25 7.625 C6.36828125 7.55539063 5.4865625 7.48578125 4.578125 7.4140625 C2.00933618 7.00149945 0.24158985 6.28839043 -2 5 C-1.34 3.35 -0.68 1.7 0 0 Z " fill="#4992B7" transform="translate(63,49)"/>
<path d="M0 0 C0.99 0.33 1.98 0.66 3 1 C2.01 3.31 1.02 5.62 0 8 C-1.95803507 8.05389087 -3.91648909 8.09274217 -5.875 8.125 C-6.96554688 8.14820313 -8.05609375 8.17140625 -9.1796875 8.1953125 C-12 8 -12 8 -14 6 C-13.34765625 4.04296875 -13.34765625 4.04296875 -12 2 C-9.43359375 1.42578125 -9.43359375 1.42578125 -6.4375 1.3125 C-2.90685689 1.45828926 -2.90685689 1.45828926 0 0 Z " fill="#01BCF2" transform="translate(102,49)"/>
<path d="M0 0 C1.32 0.66 2.64 1.32 4 2 C4.33 1.34 4.66 0.68 5 0 C6.65 0.33 8.3 0.66 10 1 C9.01 1.495 9.01 1.495 8 2 C8.99 2.99 9.98 3.98 11 5 C11 4.01 11 3.02 11 2 C12.32 2.33 13.64 2.66 15 3 C13.84826645 5.46800047 12.95216435 7.04783565 11 9 C11.99 9.66 12.98 10.32 14 11 C14.33 11.99 14.66 12.98 15 14 C12.625 14.625 12.625 14.625 10 15 C7.3144406 12.3144406 6.93950026 9.62378672 6 6 C3.69 5.67 1.38 5.34 -1 5 C-0.67 3.35 -0.34 1.7 0 0 Z " fill="#585853" transform="translate(67,23)"/>
<path d="M0 0 C-7.96709474 3.81756623 -15.59366234 4.16834136 -24.3125 4.125 C-25.10978516 4.12886719 -25.90707031 4.13273438 -26.72851562 4.13671875 C-30.06853439 4.13110055 -32.81033226 4.06322258 -36 3 C-36 2.01 -36 1.02 -36 0 C-35.25878906 0.08378906 -34.51757812 0.16757813 -33.75390625 0.25390625 C-27.0254339 0.90451741 -20.55432303 1.02664969 -13.8125 0.625 C-12.69887085 0.56034546 -12.69887085 0.56034546 -11.56274414 0.49438477 C-0.78806516 -0.23641955 -0.78806516 -0.23641955 0 0 Z " fill="#90C9FB" transform="translate(92,125)"/>
<path d="M0 0 C1.5625 1.25 1.5625 1.25 3 3 C2.8125 5.125 2.8125 5.125 2 7 C1.01 7.495 1.01 7.495 0 8 C1.06201737 10.22739701 1.06201737 10.22739701 3 13 C2.01 13.495 2.01 13.495 1 14 C1 14.66 1 15.32 1 16 C-1.64 16 -4.28 16 -7 16 C-6.2884375 15.38125 -6.2884375 15.38125 -5.5625 14.75 C-3.82100687 12.7995277 -3.53446781 11.51147981 -3 9 C-9.22414458 10.38810249 -9.22414458 10.38810249 -15 13 C-14 10 -14 10 -11.56640625 8.61328125 C-10.07947266 7.96939453 -10.07947266 7.96939453 -8.5625 7.3125 C-7.07943359 6.65701172 -7.07943359 6.65701172 -5.56640625 5.98828125 C-3 5 -3 5 -1 5 C-0.67 3.35 -0.34 1.7 0 0 Z " fill="#88BDEA" transform="translate(57,54)"/>
<path d="M0 0 C4.43744539 -0.05793591 8.87479389 -0.09357467 13.3125 -0.125 C14.57513672 -0.14175781 15.83777344 -0.15851562 17.13867188 -0.17578125 C18.95141602 -0.18544922 18.95141602 -0.18544922 20.80078125 -0.1953125 C21.91622314 -0.20578613 23.03166504 -0.21625977 24.1809082 -0.22705078 C27 0 27 0 30 2 C28.96359375 2.06058594 27.9271875 2.12117188 26.859375 2.18359375 C25.48957127 2.26803371 24.11978025 2.35267997 22.75 2.4375 C21.72712891 2.49647461 21.72712891 2.49647461 20.68359375 2.55664062 C17.33788431 2.76777763 14.23042643 3.11768089 11 4 C9.62600359 4.11666007 8.25089749 4.22094789 6.875 4.3125 C2.96728299 4.54378625 2.96728299 4.54378625 1.5 7.0625 C1.335 7.701875 1.17 8.34125 1 9 C0.34 8.67 -0.32 8.34 -1 8 C-0.67 5.36 -0.34 2.72 0 0 Z " fill="#055A75" transform="translate(87,47)"/>
<path d="M0 0 C1.6254308 0.14095064 3.25034051 0.28792087 4.875 0.4375 C5.77992187 0.51871094 6.68484375 0.59992188 7.6171875 0.68359375 C10 1 10 1 12 2 C12 3.32 12 4.64 12 6 C12.99 6 13.98 6 15 6 C15 6.66 15 7.32 15 8 C15.66 8.33 16.32 8.66 17 9 C15.24967156 8.85816304 13.49974466 8.71136571 11.75 8.5625 C10.77546875 8.48128906 9.8009375 8.40007812 8.796875 8.31640625 C6.43538247 8.04925416 4.28098935 7.64628032 2 7 C2 5.02 2 3.04 2 1 C1.34 0.67 0.68 0.34 0 0 Z " fill="#0428FE" transform="translate(50,112)"/>
<path d="M0 0 C0.99 0.495 0.99 0.495 2 1 C3.90905917 6.93929521 4.20658444 12.6238098 4.25 18.8125 C4.25918457 19.55371094 4.26836914 20.29492188 4.27783203 21.05859375 C4.25627892 24.85194202 4.12632505 27.78519904 2 31 C0.30015804 26.57234841 -0.24701589 22.92171833 -0.1875 18.1875 C-0.18105469 17.04667969 -0.17460938 15.90585938 -0.16796875 14.73046875 C0 12 0 12 1 11 C0.91015699 9.14227838 0.75388139 7.28752015 0.5625 5.4375 C0.46066406 4.42558594 0.35882813 3.41367188 0.25390625 2.37109375 C0.17011719 1.58863281 0.08632812 0.80617188 0 0 Z " fill="#798C9C" transform="translate(104,77)"/>
<path d="M0 0 C0.33 0 0.66 0 1 0 C1.63625047 3.18125234 1.85698739 5.84732517 1 9 C-1.34120791 10.88634466 -3.75912921 12.09856861 -6.44140625 13.44921875 C-10.30854184 15.7931162 -12.07273906 19.00346942 -14 23 C-13.01 23.33 -12.02 23.66 -11 24 C-11.66 24.33 -12.32 24.66 -13 25 C-14.32 24.01 -15.64 23.02 -17 22 C-15.51391353 17.09591465 -12.76254109 13.41005903 -9 10 C-6.86328125 8.875 -6.86328125 8.875 -4.6875 7.9375 C-2.65470838 7.11403814 -2.65470838 7.11403814 -1 6 C0.13478935 2.87866256 0.13478935 2.87866256 0 0 Z " fill="#52ADFF" transform="translate(89,87)"/>
<path d="M0 0 C0 1.98 0 3.96 0 6 C-1.03060547 6.29003906 -1.03060547 6.29003906 -2.08203125 6.5859375 C-2.98308594 6.84632812 -3.88414063 7.10671875 -4.8125 7.375 C-6.15248047 7.75785156 -6.15248047 7.75785156 -7.51953125 8.1484375 C-10.20467896 8.95266661 -10.20467896 8.95266661 -13 11 C-13.32693436 7.40372208 -13.47194463 5.62364112 -11.25 2.6875 C-7.54592499 -0.09055626 -4.54583656 -0.12627324 0 0 Z " fill="#74AADB" transform="translate(65,23)"/>
<path d="M0 0 C0.99 0.33 1.98 0.66 3 1 C2.62488281 1.46148437 2.24976562 1.92296875 1.86328125 2.3984375 C-2.2251032 7.60932548 -5.22046785 12.99817837 -8 19 C-9.1171875 15.28125 -9.1171875 15.28125 -8.0625 12.75 C-7.711875 12.1725 -7.36125 11.595 -7 11 C-7.99 11 -8.98 11 -10 11 C-10.268125 12.093125 -10.53625 13.18625 -10.8125 14.3125 C-11.87663739 17.61692663 -12.34654664 18.94960422 -15 21 C-16.18504789 17.44485632 -15.77142408 16.70503488 -14.3125 13.375 C-13.97863281 12.57835938 -13.64476562 11.78171875 -13.30078125 10.9609375 C-12 9 -12 9 -10.04296875 8.1640625 C-8 8 -8 8 -5 9 C-4.9175 8.443125 -4.835 7.88625 -4.75 7.3125 C-3.77389987 4.30285794 -2.04811186 2.37845248 0 0 Z " fill="#77BAF4" transform="translate(33,67)"/>
<path d="M0 0 C-0.23828125 1.859375 -0.23828125 1.859375 -1 4 C-2.85546875 5.203125 -2.85546875 5.203125 -5.1875 6.25 C-10.85003585 9.14900161 -14.17923531 13.35847061 -17 19 C-17.99 18.67 -18.98 18.34 -20 18 C-16.64866731 10.04058487 -12.11503949 5.36233749 -4.625 1.0625 C-2 0 -2 0 0 0 Z " fill="#42A6FF" transform="translate(89,90)"/>
<path d="M0 0 C0.33 0 0.66 0 1 0 C1.05395478 1.62463842 1.09277195 3.24978541 1.125 4.875 C1.14820312 5.77992187 1.17140625 6.68484375 1.1953125 7.6171875 C1 10 1 10 -1 12 C-3.875 12.4375 -3.875 12.4375 -7 12 C-9.375 9.625 -9.375 9.625 -11 7 C-11 6.34 -11 5.68 -11 5 C-8.125 4.375 -8.125 4.375 -5 4 C-4.34 4.66 -3.68 5.32 -3 6 C-2.01 4.02 -1.02 2.04 0 0 Z " fill="#A5C7E5" transform="translate(92,33)"/>
<path d="M0 0 C5.76044212 0.60636233 10.72014369 2.75658279 16 5 C16 5.66 16 6.32 16 7 C13.24921116 7.91692961 11.64051087 8.10886083 8.8125 8.0625 C6.9253125 8.0315625 6.9253125 8.0315625 5 8 C5 7.34 5 6.68 5 6 C3.68 5.67 2.36 5.34 1 5 C0.67 3.35 0.34 1.7 0 0 Z " fill="#499DF2" transform="translate(72,113)"/>
<path d="M0 0 C1.65 0 3.3 0 5 0 C4.34 0.66 3.68 1.32 3 2 C2.46638407 3.9003111 2.46638407 3.9003111 2.25 6 C2.15203125 6.70125 2.0540625 7.4025 1.953125 8.125 C1.79074152 10.25021736 1.79074152 10.25021736 4 12 C5.0828125 13.1446875 5.0828125 13.1446875 6.1875 14.3125 C8.3729124 16.40078296 10.19758808 17.82943189 12.6875 19.4375 C16.12433565 21.80824563 17.11793512 23.85429504 18 28 C18.309375 29.175625 18.309375 29.175625 18.625 30.375 C18.74875 30.91125 18.8725 31.4475 19 32 C16.80602166 29.31847092 14.81921123 26.70621824 13 23.75 C9.22915824 18.32717042 3.33251888 14.75062333 -2 11 C-1.34 7.37 -0.68 3.74 0 0 Z " fill="#0F161A" transform="translate(85,45)"/>
<path d="M0 0 C6.70126536 -0.48736475 11.06561592 0.92291196 17 4 C16.01 4.495 16.01 4.495 15 5 C14.31270746 7.11846285 14.31270746 7.11846285 13.875 9.5625 C13.70742187 10.38878906 13.53984375 11.21507812 13.3671875 12.06640625 C13.24601562 12.70449219 13.12484375 13.34257813 13 14 C11.35 12.35 9.7 10.7 8 9 C8.99 8.67 9.98 8.34 11 8 C11.73323796 5.98491642 11.73323796 5.98491642 12 4 C11.01 3.67 10.02 3.34 9 3 C9 3.99 9 4.98 9 6 C8.01 5.67 7.02 5.34 6 5 C6 4.01 6 3.02 6 2 C4.02 2 2.04 2 0 2 C0 1.34 0 0.68 0 0 Z " fill="#101010" transform="translate(69,22)"/>
<path d="M0 0 C7.35582595 -0.33605296 14.30538697 -0.46656922 21 3 C21.33 3.66 21.66 4.32 22 5 C14.31102069 4.48594306 6.65144206 3.9234499 -1 3 C-0.67 2.01 -0.34 1.02 0 0 Z " fill="#E7EDFE" transform="translate(39,108)"/>
<path d="M0 0 C0.66 0.99 1.32 1.98 2 3 C3.95385067 3.78988145 3.95385067 3.78988145 6.125 4.1875 C7.40375 4.455625 8.6825 4.72375 10 5 C10 5.33 10 5.66 10 6 C9.25234375 6.04898438 8.5046875 6.09796875 7.734375 6.1484375 C6.74953125 6.22320312 5.7646875 6.29796875 4.75 6.375 C3.77546875 6.44460937 2.8009375 6.51421875 1.796875 6.5859375 C-0.91620363 6.98759439 -2.61226467 7.7247919 -5 9 C-7.1875 8.8125 -7.1875 8.8125 -9 8 C-9.33 7.01 -9.66 6.02 -10 5 C-8.02 4.34 -6.04 3.68 -4 3 C-4 2.34 -4 1.68 -4 1 C-2.68 0.67 -1.36 0.34 0 0 Z " fill="#7FBCF3" transform="translate(63,30)"/>
<path d="M0 0 C0.763125 0.20625 1.52625 0.4125 2.3125 0.625 C1.78091309 6.47245597 1.05585438 12.3493185 -1.6875 17.625 C-4.375 19.1875 -4.375 19.1875 -6.6875 19.625 C-4.6875 15.625 -4.6875 15.625 -3.5625 13.875 C-2.17877256 10.31684372 -2.38025304 7.4348623 -2.6875 3.625 C-3.6775 2.965 -4.6675 2.305 -5.6875 1.625 C-2.6875 -0.375 -2.6875 -0.375 0 0 Z " fill="#70B8F8" transform="translate(95.6875,98.375)"/>
<path d="M0 0 C4.28700679 3.64877263 5.0959611 8.63183105 6 14 C6.06481082 19.1704632 5.5202268 23.44699767 3 28 C2.34 28 1.68 28 1 28 C0.67 24.04 0.34 20.08 0 16 C2.1385485 18.1385485 2.42655063 19.13275314 3 22 C3.08082094 20.04233719 3.13910778 18.08373272 3.1875 16.125 C3.22230469 15.03445312 3.25710937 13.94390625 3.29296875 12.8203125 C3.14794922 11.42425781 3.14794922 11.42425781 3 10 C2.01 9.34 1.02 8.68 0 8 C-0.40843923 5.28796348 -0.13336867 2.7562858 0 0 Z " fill="#0D4558" transform="translate(116,67)"/>
<path d="M0 0 C2.69082872 0.17635452 5.32851446 0.61835921 8 1 C7.01 1.66 6.02 2.32 5 3 C7.31 3.66 9.62 4.32 12 5 C11 6.5 11 6.5 9 8 C2.09589041 8.65753425 2.09589041 8.65753425 -1.5 6.5 C-1.995 6.005 -2.49 5.51 -3 5 C-2.01 5 -1.02 5 0 5 C-0.2784375 4.0409375 -0.2784375 4.0409375 -0.5625 3.0625 C-0.706875 2.381875 -0.85125 1.70125 -1 1 C-0.67 0.67 -0.34 0.34 0 0 Z " fill="#045E7B" transform="translate(125,60)"/>
<path d="M0 0 C-1 3 -1 3 -3.2578125 4.1328125 C-8.52427467 5.95526671 -13.4387937 7.50567055 -19 8 C-14.54343575 2.6521229 -7.16123133 -2.54695063 0 0 Z " fill="#ADD5FA" transform="translate(57,55)"/>
<path d="M0 0 C6.63498399 0.35544557 10.63187218 2.13095043 16 6 C15.67 6.99 15.34 7.98 15 9 C8.8961904 7.728373 4.65820047 5.15003315 0 1 C0 0.67 0 0.34 0 0 Z " fill="#B5D9FA" transform="translate(24,116)"/>
<path d="M0 0 C1.10021484 0.02900391 1.10021484 0.02900391 2.22265625 0.05859375 C4.0625 0.1875 4.0625 0.1875 7 1 C9.34885769 3.87924492 10 5.27472933 10 9 C9.13375 8.21625 8.2675 7.4325 7.375 6.625 C2.01141712 2.2012973 -3.2307392 1.44514256 -10 2 C-11.64594139 3.39588754 -11.64594139 3.39588754 -13 5 C-16.1875 5.6875 -16.1875 5.6875 -19 6 C-19 5.01 -19 4.02 -19 3 C-12.66654643 -0.45461104 -7.10994002 -0.37623835 0 0 Z " fill="#0C1920" transform="translate(74,36)"/>
<path d="M0 0 C0.99 0.33 1.98 0.66 3 1 C3.87890625 7.15234375 3.87890625 7.15234375 4 9 C3.67 9.33 3.34 9.66 3 10 C3.66 10.33 4.32 10.66 5 11 C4.67 11.99 4.34 12.98 4 14 C3.01 14 2.02 14 1 14 C-0.75328507 10.97159851 -1.25093193 8.80125633 -1.1875 5.3125 C-1.18105469 4.52488281 -1.17460937 3.73726563 -1.16796875 2.92578125 C-1 1 -1 1 0 0 Z " fill="#F8FAFC" transform="translate(17,97)"/>
<path d="M0 0 C0.66 0.33 1.32 0.66 2 1 C1.505 1.391875 1.01 1.78375 0.5 2.1875 C-1.45593143 4.55091715 -1.24207973 6.01435003 -1 9 C-0.46375 8.525625 0.0725 8.05125 0.625 7.5625 C3.42842836 5.71813924 5.69620258 5.37543153 9 5 C9 5.66 9 6.32 9 7 C7.68 7 6.36 7 5 7 C5 7.66 5 8.32 5 9 C2 11 2 11 -1 11 C-0.34 12.32 0.32 13.64 1 15 C-0.9375 14.4375 -0.9375 14.4375 -3 13 C-4.12781898 9.01503959 -4.43023443 6.89958109 -2.625 3.125 C-1 1 -1 1 0 0 Z " fill="#345068" transform="translate(54,24)"/>
<path d="M0 0 C0.33 0.99 0.66 1.98 1 3 C-0.32 3 -1.64 3 -3 3 C-2.67 3.66 -2.34 4.32 -2 5 C-5.3 5 -8.6 5 -12 5 C-12 4.67 -12 4.34 -12 4 C-15.3 3.34 -18.6 2.68 -22 2 C-22 1.67 -22 1.34 -22 1 C-18.70837401 0.83252349 -15.41669287 0.66615639 -12.125 0.5 C-11.18785156 0.45230469 -10.25070313 0.40460937 -9.28515625 0.35546875 C-8.38925781 0.31035156 -7.49335937 0.26523437 -6.5703125 0.21875 C-5.74289551 0.17685547 -4.91547852 0.13496094 -4.06298828 0.09179688 C-2.70965236 0.03157743 -1.35467505 0 0 0 Z " fill="#0B526B" transform="translate(112,56)"/>
<path d="M0 0 C3.04539848 2.28404886 3.24786644 4.86468781 4 8.5 C4 9.82 4 11.14 4 12.5 C3.34 12.5 2.68 12.5 2 12.5 C1.67 13.16 1.34 13.82 1 14.5 C0.72285156 13.65695313 0.44570312 12.81390625 0.16015625 11.9453125 C-0.20207031 10.84960938 -0.56429687 9.75390625 -0.9375 8.625 C-1.29714844 7.53445312 -1.65679687 6.44390625 -2.02734375 5.3203125 C-2.89914074 2.59241318 -2.89914074 2.59241318 -4 0.5 C-2 -0.5 -2 -0.5 0 0 Z " fill="#2094FB" transform="translate(94,79.5)"/>
<path d="M0 0 C3 1 3 1 4.1875 3.125 C5.14531259 6.51418301 5.13746202 9.49471861 5 13 C3.68 13.33 2.36 13.66 1 14 C0.67 9.38 0.34 4.76 0 0 Z " fill="#E7F3FE" transform="translate(89,81)"/>
<path d="M0 0 C0.66 0.33 1.32 0.66 2 1 C2 1.66 2 2.32 2 3 C3.32 3.66 4.64 4.32 6 5 C5.67 7.31 5.34 9.62 5 12 C4.34 12 3.68 12 3 12 C3 10.68 3 9.36 3 8 C0.36 7.67 -2.28 7.34 -5 7 C-4.0409375 6.1028125 -4.0409375 6.1028125 -3.0625 5.1875 C-0.79689611 3.09189663 -0.79689611 3.09189663 0 0 Z " fill="#31CEFB" transform="translate(118,52)"/>
<path d="M0 0 C-0.33 1.65 -0.66 3.3 -1 5 C-2.65 5.33 -4.3 5.66 -6 6 C-6 5.34 -6 4.68 -6 4 C-6.99 4 -7.98 4 -9 4 C-9 2.35 -9 0.7 -9 -1 C-3.375 -2.25 -3.375 -2.25 0 0 Z " fill="#73DEFD" transform="translate(118,52)"/>
<path d="M0 0 C2 2 2 2 2.1875 5 C2 8 2 8 1 10 C0.90444583 11.45579587 0.87015309 12.9160796 0.875 14.375 C0.87242188 15.14585938 0.86984375 15.91671875 0.8671875 16.7109375 C0.99610212 18.9328189 1.38616283 20.86618508 2 23 C3.32 23.33 4.64 23.66 6 24 C5.67 24.66 5.34 25.32 5 26 C1.83884224 24.63016497 1.0072908 24.0109362 -1 21 C-1.24291992 19.0546875 -1.24291992 19.0546875 -1.23046875 16.875 C-1.22853516 16.08609375 -1.22660156 15.2971875 -1.22460938 14.484375 C-1.21236328 13.66453125 -1.20011719 12.8446875 -1.1875 12 C-1.18685547 11.18015625 -1.18621094 10.3603125 -1.18554688 9.515625 C-1.15984783 6.02055551 -1.1158005 3.34740151 0 0 Z " fill="#86BAE8" transform="translate(16,88)"/>
<path d="M0 0 C0.556875 0.391875 1.11375 0.78375 1.6875 1.1875 C0.841875 1.88875 -0.00375 2.59 -0.875 3.3125 C-3.70559751 5.98207985 -3.70559751 5.98207985 -3.125 9.5 C-2.856875 10.386875 -2.58875 11.27375 -2.3125 12.1875 C-4.65186818 10.06080165 -6.11903848 8.12525144 -7.3125 5.1875 C-7.3125 4.1975 -7.3125 3.2075 -7.3125 2.1875 C-3.20088417 -1.12463498 -3.20088417 -1.12463498 0 0 Z " fill="#01B1E4" transform="translate(111.3125,62.8125)"/>
<path d="M0 0 C4.65281472 1.45615868 7.7635188 4.16037858 11.25 7.4375 C12.06210938 8.17323242 12.06210938 8.17323242 12.890625 8.92382812 C15.39684343 11.24521295 16.90317029 12.70951087 18 16 C15.0625 15.25 15.0625 15.25 12 14 C11.8865625 13.41089844 11.773125 12.82179688 11.65625 12.21484375 C10.63924227 8.78244265 8.22126354 7.4634284 5.4375 5.3125 C3.61195743 3.89159999 1.79569044 2.4584438 0 1 C0 0.67 0 0.34 0 0 Z " fill="#1B2B38" transform="translate(75,60)"/>
<path d="M0 0 C2.42942464 1.21168311 4.854336 2.43175025 7.27734375 3.65625 C8.49737208 4.27088049 9.71742476 4.88546263 10.9375 5.5 C11.54529297 5.80808594 12.15308594 6.11617188 12.77929688 6.43359375 C16.13379021 8.11988705 19.48939137 9.66770071 23 11 C17.71853119 12.7604896 12.83205357 9.29720579 8 7 C5.15234235 5.46997998 2.64373878 3.88112183 0 2 C0 1.34 0 0.68 0 0 Z " fill="#11161A" transform="translate(23,117)"/>
<path d="M0 0 C2.37720939 0.25707735 4.75076606 0.53017068 7.125 0.8125 C8.12273437 0.91788086 8.12273437 0.91788086 9.140625 1.02539062 C13.64054021 1.57685082 17.06760451 2.76429228 21 5 C14.76421996 7.15853924 7.85060937 4.44555472 2 2 C1.34 1.34 0.68 0.68 0 0 Z " fill="#0E4CA1" transform="translate(61,109)"/>
<path d="M0 0 C4.72254335 1.49132948 4.72254335 1.49132948 6.125 4.0625 C6.41375 4.701875 6.7025 5.34125 7 6 C7.99 6.33 8.98 6.66 10 7 C10 7.66 10 8.32 10 9 C10.99 9.33 11.98 9.66 13 10 C10.36 10 7.72 10 5 10 C3.33333333 6.66666667 1.66666667 3.33333333 0 0 Z " fill="#035FEF" transform="translate(67,112)"/>
<path d="M0 0 C2.5 1.75 2.5 1.75 5 4 C5 5.32 5 6.64 5 8 C1.39703406 8.41176754 0.21597933 8.1535853 -2.8125 6 C-3.534375 5.34 -4.25625 4.68 -5 4 C-3.35 3.34 -1.7 2.68 0 2 C0 1.34 0 0.68 0 0 Z " fill="#238EB5" transform="translate(80,41)"/>
<path d="M0 0 C2.05078125 0.03255208 4.1015625 0.06510417 6.15234375 0.09765625 C5.82234375 1.74765625 5.49234375 3.39765625 5.15234375 5.09765625 C3.50234375 5.42765625 1.85234375 5.75765625 0.15234375 6.09765625 C0.48234375 4.44765625 0.81234375 2.79765625 1.15234375 1.09765625 C-0.87223005 3.03020397 -2.26871417 4.72924313 -3.84765625 7.09765625 C-2.81269978 0.14866278 -2.81269978 0.14866278 0 0 Z " fill="#312F2B" transform="translate(70.84765625,7.90234375)"/>
<path d="M0 0 C0.99 0.33 1.98 0.66 3 1 C2.67 2.65 2.34 4.3 2 6 C3.65 4.68 5.3 3.36 7 2 C5.49776416 6.20626034 2.71449966 7.73900021 -1 10 C-1.66 9.67 -2.32 9.34 -3 9 C-2.67 7.02 -2.34 5.04 -2 3 C-1.34 3 -0.68 3 0 3 C0 2.01 0 1.02 0 0 Z " fill="#68839B" transform="translate(94,119)"/>
<path d="M0 0 C0.66 0 1.32 0 2 0 C1.67 1.65 1.34 3.3 1 5 C1.66 5 2.32 5 3 5 C2.67 6.32 2.34 7.64 2 9 C1.01 9 0.02 9 -1 9 C-1 9.99 -1 10.98 -1 12 C-1.66 12 -2.32 12 -3 12 C-2.88541307 10.56163249 -2.75790884 9.12429034 -2.625 7.6875 C-2.55539063 6.88699219 -2.48578125 6.08648437 -2.4140625 5.26171875 C-2 3 -2 3 0 0 Z " fill="#696D6F" transform="translate(70,9)"/>
<path d="M0 0 C2.8487391 0.35845062 3.88047592 0.87354699 5.88671875 2.99609375 C6.48097656 3.80175781 7.07523437 4.60742188 7.6875 5.4375 C8.28949219 6.24058594 8.89148438 7.04367188 9.51171875 7.87109375 C12.02074833 11.46012556 12.09481758 13.63839114 12 18 C11.72929688 17.43152344 11.45859375 16.86304687 11.1796875 16.27734375 C8.15824651 10.44456197 4.21350499 5.02379441 0 0 Z " fill="#84BBEE" transform="translate(87,68)"/>
<path d="M0 0 C0.33 0.66 0.66 1.32 1 2 C3.58605332 2.4683265 3.58605332 2.4683265 6.5625 2.625 C8.08037109 2.73714844 8.08037109 2.73714844 9.62890625 2.8515625 C10.80259766 2.92503906 10.80259766 2.92503906 12 3 C11.67 3.66 11.34 4.32 11 5 C10.01 5 9.02 5 8 5 C8.33 6.32 8.66 7.64 9 9 C7.491987 8.07544441 5.99375083 7.1349253 4.5 6.1875 C3.6646875 5.66542969 2.829375 5.14335938 1.96875 4.60546875 C0.99421875 3.81076172 0.99421875 3.81076172 0 3 C0 2.01 0 1.02 0 0 Z " fill="#026B8E" transform="translate(89,56)"/>
<path d="M0 0 C0.99 0.66 1.98 1.32 3 2 C3.40843923 4.71203652 3.13336867 7.2437142 3 10 C2.67 10 2.34 10 2 10 C1.67 8.35 1.34 6.7 1 5 C0.34 6.65 -0.32 8.3 -1 10 C-2.65 8.35 -4.3 6.7 -6 5 C-5.195625 4.54625 -4.39125 4.0925 -3.5625 3.625 C-0.91143428 2.25274335 -0.91143428 2.25274335 0 0 Z " fill="#5E819F" transform="translate(91,30)"/>
<path d="M0 0 C2.475 0.495 2.475 0.495 5 1 C5 1.66 5 2.32 5 3 C5.99 3.66 6.98 4.32 8 5 C8.33 5.99 8.66 6.98 9 8 C6.625 8.625 6.625 8.625 4 9 C1.3144406 6.3144406 0.93950026 3.62378672 0 0 Z " fill="#375F7F" transform="translate(73,29)"/>
<path d="M0 0 C1.65 0 3.3 0 5 0 C4.34 0.66 3.68 1.32 3 2 C2.46638407 3.9003111 2.46638407 3.9003111 2.25 6 C2.15203125 6.70125 2.0540625 7.4025 1.953125 8.125 C1.79074152 10.25021736 1.79074152 10.25021736 4 12 C2.68 12.33 1.36 12.66 0 13 C-0.66 11.68 -1.32 10.36 -2 9 C-1.67 8.67 -1.34 8.34 -1 8 C-0.76924918 6.65252916 -0.58846937 5.29622435 -0.4375 3.9375 C-0.293125 2.638125 -0.14875 1.33875 0 0 Z " fill="#0B252E" transform="translate(85,45)"/>
<path d="M0 0 C0.66 0.33 1.32 0.66 2 1 C1.566875 1.680625 1.13375 2.36125 0.6875 3.0625 C-1.17503916 6.3046978 -2.57729648 9.54486289 -4 13 C-4.66 12.01 -5.32 11.02 -6 10 C-5.390625 7.7734375 -5.390625 7.7734375 -4.25 5.375 C-3.88390625 4.57835938 -3.5178125 3.78171875 -3.140625 2.9609375 C-2 1 -2 1 0 0 Z " fill="#6198C8" transform="translate(23,75)"/>
<path d="M0 0 C0 0.99 0 1.98 0 3 C-2.3125 3.6875 -2.3125 3.6875 -5 4 C-6.8125 2.6875 -6.8125 2.6875 -8 1 C-8 0.34 -8 -0.32 -8 -1 C-4.59745511 -2.2151946 -3.06748874 -1.86240388 0 0 Z " fill="#9BCDFA" transform="translate(89,39)"/>
<path d="M0 0 C1.97194115 1.97194115 2.832365 3.50904533 4 6 C4.33 6.66 4.66 7.32 5 8 C2 10 2 10 -1 10 C-1.125 3.375 -1.125 3.375 0 0 Z " fill="#C3E2FF" transform="translate(100,80)"/>
<path d="M0 0 C2.0625 0.25 2.0625 0.25 4 1 C4.33 1.66 4.66 2.32 5 3 C3.02 3.33 1.04 3.66 -1 4 C-1 5.98 -1 7.96 -1 10 C-1.99 8.68 -2.98 7.36 -4 6 C-2.84826645 3.53199953 -1.95216435 1.95216435 0 0 Z " fill="#38CEFA" transform="translate(111,65)"/>
<path d="M0 0 C1.65 0 3.3 0 5 0 C4.67 0.99 4.34 1.98 4 3 C4.99 4.485 4.99 4.485 6 6 C3.125 6.125 3.125 6.125 0 6 C-0.66 5.34 -1.32 4.68 -2 4 C-1.34 2.68 -0.68 1.36 0 0 Z " fill="#02A6D8" transform="translate(90,51)"/>
<path d="M0 0 C1.67059759 2.55503162 2.0040057 3.9038633 1.875 7 C0.88029483 10.41041771 -0.23223055 11.81933316 -3 14 C-3.66 14 -4.32 14 -5 14 C-3 10 -3 10 -1.9375 8.125 C-0.7614358 5.45925448 -0.39213842 2.87568173 0 0 Z " fill="#8DC4F5" transform="translate(94,104)"/>
<path d="M0 0 C0.66 0.66 1.32 1.32 2 2 C1.69041608 7.26292658 0.20481515 11.30278511 -2 16 C-3.58172092 12.83655815 -1.9398106 10.28933711 -1 7 C-1.33 6.34 -1.66 5.68 -2 5 C-1.0625 2.375 -1.0625 2.375 0 0 Z " fill="#B4D6F6" transform="translate(104,102)"/>
<path d="M0 0 C0.33 0.99 0.66 1.98 1 3 C-3.37037037 6.03497942 -3.37037037 6.03497942 -6.25 5.875 C-8 5 -8 5 -9 2 C-6.03 1.34 -3.06 0.68 0 0 Z " fill="#93C7F5" transform="translate(62,33)"/>
<path d="M0 0 C2 2 2 2 2.046875 5.00390625 C1.89992188 6.76541016 1.89992188 6.76541016 1.75 8.5625 C1.61851563 10.32787109 1.61851563 10.32787109 1.484375 12.12890625 C1.32453125 13.07636719 1.1646875 14.02382812 1 15 C0.01 15.495 0.01 15.495 -1 16 C-1.02712153 14.083412 -1.04645097 12.1667127 -1.0625 10.25 C-1.07410156 9.18265625 -1.08570312 8.1153125 -1.09765625 7.015625 C-1.01510087 4.46631499 -0.74617558 2.42066409 0 0 Z " fill="#0D2B54" transform="translate(23,88)"/>
<path d="M0 0 C2.76276177 0.52268466 5.3260876 1.10869587 8 2 C8 2.66 8 3.32 8 4 C8.66 4.33 9.32 4.66 10 5 C7.03 4.67 4.06 4.34 1 4 C0.67 2.68 0.34 1.36 0 0 Z " fill="#0028C2" transform="translate(57,116)"/>
<path d="M0 0 C4.29 0.66 8.58 1.32 13 2 C13 2.99 13 3.98 13 5 C8.28596212 4.52060632 4.33420699 4.03165952 0 2 C0 1.34 0 0.68 0 0 Z " fill="#091331" transform="translate(36,114)"/>
<path d="M0 0 C1.98 0.495 1.98 0.495 4 1 C3.67 2.65 3.34 4.3 3 6 C1.68 6.33 0.36 6.66 -1 7 C-0.67 4.69 -0.34 2.38 0 0 Z " fill="#EDF6FE" transform="translate(28,85)"/>
<path d="M0 0 C0.99 0.33 1.98 0.66 3 1 C3.33 1.99 3.66 2.98 4 4 C3.67 4.66 3.34 5.32 3 6 C-1.75 5.25 -1.75 5.25 -4 3 C-2.1875 1.4375 -2.1875 1.4375 0 0 Z " fill="#1FCDFE" transform="translate(115,74)"/>
<path d="M0 0 C2.97 0.33 5.94 0.66 9 1 C9 1.99 9 2.98 9 4 C6.36 3.67 3.72 3.34 1 3 C0.67 3.66 0.34 4.32 0 5 C0 3.35 0 1.7 0 0 Z " fill="#34526B" transform="translate(64,30)"/>
<path d="M0 0 C0.33 0.66 0.66 1.32 1 2 C1.66 2.33 2.32 2.66 3 3 C2.34 4.98 1.68 6.96 1 9 C-0.65 7.35 -2.3 5.7 -4 4 C-3.01 3.67 -2.02 3.34 -1 3 C-0.67 2.01 -0.34 1.02 0 0 Z " fill="#25292B" transform="translate(81,27)"/>
<path d="M0 0 C1.58246707 -0.08153933 3.16616273 -0.13943557 4.75 -0.1875 C6.07257813 -0.23970703 6.07257813 -0.23970703 7.421875 -0.29296875 C10.44671583 0.05076316 11.75583602 1.00227459 14 3 C13.01 3 12.02 3 11 3 C11 3.66 11 4.32 11 5 C10.01 5 9.02 5 8 5 C7.67 3.68 7.34 2.36 7 1 C4.69 1 2.38 1 0 1 C0 0.67 0 0.34 0 0 Z " fill="#221F1A" transform="translate(71,7)"/>
<path d="M0 0 C1.90382301 2.85573451 2.2957965 3.78112138 2.625 7 C2.69976562 7.680625 2.77453125 8.36125 2.8515625 9.0625 C2.97734294 10.70426577 3 12.35342308 3 14 C1.02 14.99 1.02 14.99 -1 16 C-0.83628906 15.29488281 -0.67257813 14.58976562 -0.50390625 13.86328125 C0.01699824 10.90341312 0.09866732 8.18938727 0.0625 5.1875 C0.05347656 4.21167969 0.04445313 3.23585938 0.03515625 2.23046875 C0.02355469 1.49441406 0.01195313 0.75835937 0 0 Z " fill="#01394B" transform="translate(111,79)"/>
<path d="M0 0 C2 3 2 3 1.875 5.5 C0.83133 8.48191427 -0.34828366 9.3747545 -3 11 C-3.39253254 6.55129785 -2.15305957 3.85756507 0 0 Z " fill="#B5D8F8" transform="translate(98,115)"/>
<path d="M0 0 C0.66 0 1.32 0 2 0 C2.33 1.98 2.66 3.96 3 6 C2.34 6 1.68 6 1 6 C0.67 6.66 0.34 7.32 0 8 C-1.32 7.67 -2.64 7.34 -4 7 C-2.68 4.69 -1.36 2.38 0 0 Z " fill="#78B5EA" transform="translate(97,111)"/>
<path d="M0 0 C-2.49374292 2.49374292 -3.50454345 2.62814292 -7 3 C-10.01840479 2.78729362 -13.00455828 2.42419109 -16 2 C-16 1.67 -16 1.34 -16 1 C-10.63904667 -0.12862175 -5.44693314 -0.09688221 0 0 Z " fill="#0224E4" transform="translate(45,106)"/>
<path d="M0 0 C2 2 2 2 2.3125 4.875 C1.9736202 8.26379801 1.27183419 9.53884629 -1 12 C-1.02712066 10.56260487 -1.04645067 9.12506137 -1.0625 7.6875 C-1.07410156 6.88699219 -1.08570313 6.08648437 -1.09765625 5.26171875 C-1 3 -1 3 0 0 Z " fill="#649AC9" transform="translate(16,88)"/>
<path d="M0 0 C0.33 0 0.66 0 1 0 C1.06058594 0.83144531 1.12117188 1.66289063 1.18359375 2.51953125 C1.26738281 3.60621094 1.35117187 4.69289063 1.4375 5.8125 C1.55931641 7.43091797 1.55931641 7.43091797 1.68359375 9.08203125 C1.90212461 12.05989905 1.90212461 12.05989905 3 15 C2.34 15 1.68 15 1 15 C0.54427083 12.98177083 0.08854167 10.96354167 -0.3671875 8.9453125 C-0.90474428 6.79280036 -0.90474428 6.79280036 -3 5 C-2.34 5 -1.68 5 -1 5 C-0.67 3.35 -0.34 1.7 0 0 Z " fill="#AED7FD" transform="translate(20,91)"/>
<path d="M0 0 C1.32 0 2.64 0 4 0 C4.33 1.98 4.66 3.96 5 6 C4.34 6 3.68 6 3 6 C2.67 6.66 2.34 7.32 2 8 C1.34 5.36 0.68 2.72 0 0 Z " fill="#378EDB" transform="translate(93,86)"/>
<path d="M0 0 C-2.88087546 2.40072955 -5.56404834 4.47291037 -9 6 C-9.66 5.34 -10.32 4.68 -11 4 C-10.34 3.67 -9.68 3.34 -9 3 C-8.34 3.33 -7.68 3.66 -7 4 C-7 3.01 -7 2.02 -7 1 C-3.375 -1.125 -3.375 -1.125 0 0 Z " fill="#A1C6E7" transform="translate(44,62)"/>
<path d="M0 0 C-0.33 1.65 -0.66 3.3 -1 5 C-1.99 5 -2.98 5 -4 5 C-4.66 3.68 -5.32 2.36 -6 1 C-4 0 -4 0 0 0 Z " fill="#093E53" transform="translate(85,49)"/>
<path d="M0 0 C0.66 0 1.32 0 2 0 C2.84888195 5.37625234 3.0024305 9.65370398 2 15 C1.67 15 1.34 15 1 15 C0.67 10.05 0.34 5.1 0 0 Z " fill="#87C2F9" transform="translate(100,91)"/>
<path d="M0 0 C1.32 0.33 2.64 0.66 4 1 C3.40138258 3.35171131 2.73075648 5.6859378 2 8 C1.01 8.495 1.01 8.495 0 9 C0 6.03 0 3.06 0 0 Z " fill="#68A3D7" transform="translate(76,51)"/>
<path d="M0 0 C-4.02167317 2.96837781 -7.00088076 4.52389341 -12 5 C-12 4.34 -12 3.68 -12 3 C-10.3789897 2.30314502 -8.75303934 1.61777139 -7.125 0.9375 C-6.22007813 0.55464844 -5.31515625 0.17179687 -4.3828125 -0.22265625 C-2 -1 -2 -1 0 0 Z " fill="#6BA8DF" transform="translate(53,52)"/>
<path d="M0 0 C0.66 0.99 1.32 1.98 2 3 C-1.18762365 5.12508244 -3.26512223 5.5020163 -7 6 C-7 5.01 -7 4.02 -7 3 C-4.69 2.01 -2.38 1.02 0 0 Z " fill="#3C6B81" transform="translate(62,36)"/>
<path d="M0 0 C2.97 0.495 2.97 0.495 6 1 C5.67 2.32 5.34 3.64 5 5 C3.68 5 2.36 5 1 5 C0.67 3.35 0.34 1.7 0 0 Z " fill="#5EA4FA" transform="translate(72,113)"/>
<path d="M0 0 C1.60080151 4.00200378 0.29279692 7.04556236 -1 11 C-1.33 11 -1.66 11 -2 11 C-2.33 7.7 -2.66 4.4 -3 1 C-2.01 0.67 -1.02 0.34 0 0 Z " fill="#87C1F5" transform="translate(20,85)"/>
<path d="M0 0 C0.66 0 1.32 0 2 0 C5.3203125 5.078125 5.3203125 5.078125 6 7 C5.1171875 9.234375 5.1171875 9.234375 4 11 C3.32880451 9.5437455 2.66318193 8.08492133 2 6.625 C1.62875 5.81289062 1.2575 5.00078125 0.875 4.1640625 C0 2 0 2 0 0 Z " fill="#D4E1EE" transform="translate(99,72)"/>
<path d="M0 0 C2.475 0.495 2.475 0.495 5 1 C5 1.66 5 2.32 5 3 C5.66 3.66 6.32 4.32 7 5 C5.35 5.66 3.7 6.32 2 7 C1.34 4.69 0.68 2.38 0 0 Z " fill="#074BDF" transform="translate(58,107)"/>
<path d="M0 0 C0.66 0.33 1.32 0.66 2 1 C0.35 3.64 -1.3 6.28 -3 9 C-3.66 8.67 -4.32 8.34 -5 8 C-4 6 -3 4 -2 2 C-1.34 2 -0.68 2 0 2 C0 1.34 0 0.68 0 0 Z " fill="#80C2FE" transform="translate(87,104)"/>
<path d="M0 0 C0.66 0.33 1.32 0.66 2 1 C1.67 5.95 1.34 10.9 1 16 C0.67 16 0.34 16 0 16 C-0.19441368 13.7089095 -0.38033135 11.41709663 -0.5625 9.125 C-0.71912109 7.21074219 -0.71912109 7.21074219 -0.87890625 5.2578125 C-1 2 -1 2 0 0 Z " fill="#90C9FC" transform="translate(21,87)"/>
<path d="M0 0 C2.9375 0.375 2.9375 0.375 6 1 C6.33 1.66 6.66 2.32 7 3 C5.68 2.67 4.36 2.34 3 2 C2.67 2.99 2.34 3.98 2 5 C1.01 5 0.02 5 -1 5 C-0.67 3.35 -0.34 1.7 0 0 Z " fill="#5282AC" transform="translate(84,27)"/>
<path d="M0 0 C0.33 0 0.66 0 1 0 C1 3.3 1 6.6 1 10 C0.34 9.67 -0.32 9.34 -1 9 C-1.75 5.5625 -1.75 5.5625 -2 2 C-1.34 1.34 -0.68 0.68 0 0 Z " fill="#02A7DA" transform="translate(119,80)"/>
<path d="M0 0 C0.99 0.33 1.98 0.66 3 1 C2.0409375 2.1446875 2.0409375 2.1446875 1.0625 3.3125 C-1.14232781 5.88246713 -1.14232781 5.88246713 -2 9 C-2.99 9.33 -3.98 9.66 -5 10 C-3.66511872 6.40608886 -2.03977277 3.24509304 0 0 Z " fill="#92C8F9" transform="translate(30,67)"/>
<path d="M0 0 C0.99 0.33 1.98 0.66 3 1 C1.95125002 3.62187494 1.35068687 4.79371361 -1.125 6.25 C-1.74375 6.4975 -2.3625 6.745 -3 7 C-2.25 2.25 -2.25 2.25 0 0 Z " fill="#F5F6F6" transform="translate(56,26)"/>
<path d="M0 0 C1.875 0.5625 1.875 0.5625 4 2 C5.25 5.625 5.25 5.625 6 9 C3 8 3 8 2.05078125 6.15234375 C1.80714844 5.42144531 1.56351562 4.69054687 1.3125 3.9375 C1.06113281 3.20402344 0.80976562 2.47054687 0.55078125 1.71484375 C0.36902344 1.14894531 0.18726562 0.58304687 0 0 Z " fill="#0454F7" transform="translate(65,112)"/>
<path d="M0 0 C0.66 0.33 1.32 0.66 2 1 C1.67 3.31 1.34 5.62 1 8 C0.01 8.33 -0.98 8.66 -2 9 C-2.20140476 5.37471432 -1.85776765 3.13498292 0 0 Z " fill="#0295C2" transform="translate(115,82)"/>
<path d="M0 0 C0.99 0.33 1.98 0.66 3 1 C1.35 2.98 -0.3 4.96 -2 7 C-2.66 6.34 -3.32 5.68 -4 5 C-2.68 3.35 -1.36 1.7 0 0 Z " fill="#6F99BF" transform="translate(33,67)"/>
<path d="M0 0 C1.5625 1.25 1.5625 1.25 3 3 C2.875 5.125 2.875 5.125 2 7 C1.01 7.33 0.02 7.66 -1 8 C-1.04241723 5.66705225 -1.04092937 3.33297433 -1 1 C-0.67 0.67 -0.34 0.34 0 0 Z " fill="#739DC0" transform="translate(57,54)"/>
<path d="M0 0 C0.66 0.33 1.32 0.66 2 1 C1.67 1.33 1.34 1.66 1 2 C0.95919217 3.99958364 0.95745644 6.00045254 1 8 C-0.32 8 -1.64 8 -3 8 C-2.45276317 4.62537285 -1.9451 2.91765 0 0 Z " fill="#2DD0FF" transform="translate(105,49)"/>
<path d="M0 0 C0.66 0.33 1.32 0.66 2 1 C1.67 3.31 1.34 5.62 1 8 C0.34 8 -0.32 8 -1 8 C-1.04241723 5.66705225 -1.04092937 3.33297433 -1 1 C-0.67 0.67 -0.34 0.34 0 0 Z " fill="#01BEF5" transform="translate(122,56)"/>
<path d="M0 0 C1.134375 0.020625 2.26875 0.04125 3.4375 0.0625 C3.4375 1.0525 3.4375 2.0425 3.4375 3.0625 C2.7775 2.7325 2.1175 2.4025 1.4375 2.0625 C0.7775 2.248125 0.1175 2.43375 -0.5625 2.625 C-1.2225 2.769375 -1.8825 2.91375 -2.5625 3.0625 C-3.2225 2.4025 -3.8825 1.7425 -4.5625 1.0625 C-3.5625 0.0625 -3.5625 0.0625 0 0 Z " fill="#5ECCEE" transform="translate(113.5625,48.9375)"/>
<path d="M0 0 C0.99 0.66 1.98 1.32 3 2 C1.625 4 1.625 4 0 6 C-0.66 6 -1.32 6 -2 6 C-1.125 1.125 -1.125 1.125 0 0 Z " fill="#68C1E3" transform="translate(57,40)"/>
<path d="M0 0 C2.64 0 5.28 0 8 0 C8 0.66 8 1.32 8 2 C9.32 2.33 10.64 2.66 12 3 C7.06729471 4.6442351 4.45975807 3.18615592 0 1 C0 0.67 0 0.34 0 0 Z " fill="#253441" transform="translate(67,33)"/>
<path d="M0 0 C1.11375 0.598125 2.2275 1.19625 3.375 1.8125 C4.00148438 2.14894531 4.62796875 2.48539063 5.2734375 2.83203125 C7 4 7 4 9 7 C5.13066838 6.42676569 2.84777943 4.61046448 0 2 C0 1.34 0 0.68 0 0 Z " fill="#D4E1ED" transform="translate(84,57)"/>
<path d="M0 0 C0 0.66 0 1.32 0 2 C-2.59240819 3.8597711 -5.14410847 5.57205423 -8 7 C-6.13932792 2.84926997 -4.83061881 0 0 0 Z " fill="#7FBDF5" transform="translate(45,56)"/>
<path d="M0 0 C1.84765625 0.33984375 1.84765625 0.33984375 4.0625 0.9375 C5.16271484 1.22947266 5.16271484 1.22947266 6.28515625 1.52734375 C7.13400391 1.76130859 7.13400391 1.76130859 8 2 C8 2.33 8 2.66 8 3 C4.7 3 1.4 3 -2 3 C-1 1 -1 1 0 0 Z " fill="#6990B2" transform="translate(65,33)"/>
<path d="M0 0 C2.375 -0.1875 2.375 -0.1875 5 0 C5.66 0.99 6.32 1.98 7 3 C4.625 3.625 4.625 3.625 2 4 C1.34 3.34 0.68 2.68 0 2 C0 1.34 0 0.68 0 0 Z " fill="#5A7F9E" transform="translate(75,34)"/>
<path d="" fill="#000102" transform="translate(0,0)"/>
</svg>
