<?xml version="1.0" encoding="UTF-8"?>
<svg version="1.1" xmlns="http://www.w3.org/2000/svg" width="150" height="150">
<path d="M0 0 C4.15006916 1.04165083 6.86076148 3.79385752 9.16796875 7.35546875 C10.66970326 11.40201446 9.14365967 15.47613091 7.9609375 19.4921875 C6.76941209 21.8275773 5.7986911 23.6544339 3.9609375 25.4921875 C1.0859375 25.8046875 1.0859375 25.8046875 -2.0390625 25.4921875 C-3.9140625 23.4921875 -3.9140625 23.4921875 -5.0390625 21.4921875 C-6.0290625 24.4621875 -7.0190625 27.4321875 -8.0390625 30.4921875 C-7.44738281 30.84410156 -6.85570313 31.19601563 -6.24609375 31.55859375 C-1.1006108 34.77347135 3.4003113 37.8266474 5.9609375 43.4921875 C6.72069943 48.90549123 5.3404964 51.7330697 2.9609375 56.4921875 C3.32014977 59.12841123 3.32014977 59.12841123 3.9609375 61.4921875 C4.61320312 61.60433594 5.26546875 61.71648437 5.9375 61.83203125 C11.06975937 62.99019597 14.35084261 64.17579768 17.4609375 68.5546875 C22.42169209 77.2710416 23.04510089 87.65311329 21.9609375 97.4921875 C20.58719755 100.73990885 19.45190299 103.00122201 16.9609375 105.4921875 C13.8359375 105.6171875 13.8359375 105.6171875 10.9609375 105.4921875 C10.868125 106.4821875 10.868125 106.4821875 10.7734375 107.4921875 C9.97594572 110.43677253 9.03258606 112.01066274 7.3359375 114.4921875 C5.29517255 117.47717565 5.29517255 117.47717565 5.1484375 120.9921875 C5.550625 122.2296875 5.550625 122.2296875 5.9609375 123.4921875 C6.17225236 126.21286637 6.0957575 128.75084744 5.9609375 131.4921875 C5.3009375 132.1521875 4.6409375 132.8121875 3.9609375 133.4921875 C0.19279347 133.38452624 -1.53920855 132.0881651 -4.2265625 129.6796875 C-5.97007013 128.23693089 -5.97007013 128.23693089 -8.0390625 127.4921875 C-10.75107809 128.06746353 -12.96802159 129.10970617 -15.47265625 130.29296875 C-28.67729395 136.46317236 -47.50512372 134.87613795 -61.0390625 130.4921875 C-61.89628906 130.10804688 -62.75351562 129.72390625 -63.63671875 129.328125 C-66.37053286 128.37684659 -67.3953374 128.39785867 -70.0390625 129.4921875 C-71.86612123 130.75029373 -73.54535712 132.12236625 -75.2578125 133.53125 C-77.0390625 134.4921875 -77.0390625 134.4921875 -79.1953125 134.203125 C-81.0390625 133.4921875 -81.0390625 133.4921875 -82.0390625 132.4921875 C-82.13837869 131.07839231 -82.16875545 129.65945901 -82.1640625 128.2421875 C-82.16792969 127.08976562 -82.16792969 127.08976562 -82.171875 125.9140625 C-82.0390625 123.4921875 -82.0390625 123.4921875 -81.31640625 121.05078125 C-80.91768685 117.3724544 -82.38937114 115.78697067 -84.4765625 112.8046875 C-88.0390625 107.65265717 -88.0390625 107.65265717 -88.0390625 105.4921875 C-89.4003125 105.6778125 -89.4003125 105.6778125 -90.7890625 105.8671875 C-94.0390625 105.4921875 -94.0390625 105.4921875 -96.3515625 103.2421875 C-100.1071009 96.52008935 -99.49225892 88.36509917 -97.8515625 81.1171875 C-96.1413415 75.15093707 -94.33107401 71.02019517 -89.0390625 67.4921875 C-86.3515625 67.8671875 -86.3515625 67.8671875 -84.0390625 68.4921875 C-80.72660905 62.93199778 -79.3898566 58.98424649 -80.0390625 52.4921875 C-80.67380325 51.14336342 -81.33755098 49.8075216 -82.0390625 48.4921875 C-82.52024439 44.80312636 -82.21649362 42.86247854 -80.6015625 39.4921875 C-71.08673779 28.35288052 -57.82503582 26.71425087 -44.0390625 25.4921875 C-35.54889209 24.94766086 -27.41243516 26.12311051 -19.0390625 27.4921875 C-18.92949219 26.66847656 -18.81992188 25.84476563 -18.70703125 24.99609375 C-17.93870665 20.96575943 -16.74933161 17.27804411 -15.3515625 13.4296875 C-15.00448242 12.38844727 -15.00448242 12.38844727 -14.65039062 11.32617188 C-12.12563484 4.38474149 -7.86516899 -0.5122907 0 0 Z M-4.0390625 15.4921875 C-3.0390625 18.4921875 -3.0390625 18.4921875 -3.0390625 18.4921875 Z " fill="#507347" transform="translate(113.0390625,13.5078125)"/>
<path d="M0 0 C4.15006916 1.04165083 6.86076148 3.79385752 9.16796875 7.35546875 C10.66970326 11.40201446 9.14365967 15.47613091 7.9609375 19.4921875 C6.76941209 21.8275773 5.7986911 23.6544339 3.9609375 25.4921875 C1.0859375 25.8046875 1.0859375 25.8046875 -2.0390625 25.4921875 C-3.734375 23.47265625 -3.734375 23.47265625 -5.0390625 21.4921875 C-5.54566406 22.75675781 -5.54566406 22.75675781 -6.0625 24.046875 C-6.73152344 25.69042969 -6.73152344 25.69042969 -7.4140625 27.3671875 C-8.07535156 29.00300781 -8.07535156 29.00300781 -8.75 30.671875 C-10.0390625 33.4921875 -10.0390625 33.4921875 -12.0390625 35.4921875 C-12.3690625 34.5021875 -12.6990625 33.5121875 -13.0390625 32.4921875 C-14.0290625 32.8221875 -15.0190625 33.1521875 -16.0390625 33.4921875 C-15.3790625 33.8840625 -14.7190625 34.2759375 -14.0390625 34.6796875 C-13.3790625 35.2778125 -12.7190625 35.8759375 -12.0390625 36.4921875 C-12.1215625 37.2759375 -12.2040625 38.0596875 -12.2890625 38.8671875 C-12.2065625 39.7334375 -12.1240625 40.5996875 -12.0390625 41.4921875 C-9.55969376 43.50530327 -6.86193467 45.01143982 -4.0390625 46.4921875 C-5.0390625 49.4921875 -5.0390625 49.4921875 -6.75390625 50.51171875 C-13.06888238 52.76468914 -17.64589538 52.34740719 -24.0390625 50.4921875 C-21.3990625 51.4821875 -18.7590625 52.4721875 -16.0390625 53.4921875 C-27.4705929 61.11320776 -46.21037181 57.75607409 -59.0390625 55.4921875 C-72.41524397 52.26345404 -72.41524397 52.26345404 -76.0390625 46.4921875 C-75.8515625 42.8671875 -75.8515625 42.8671875 -75.0390625 39.4921875 C-75.0390625 38.5021875 -75.0390625 37.5121875 -75.0390625 36.4921875 C-75.6990625 36.1621875 -76.3590625 35.8321875 -77.0390625 35.4921875 C-59.87785791 23.66171131 -38.87810603 24.24843148 -19.0390625 27.4921875 C-18.92949219 26.66847656 -18.81992188 25.84476563 -18.70703125 24.99609375 C-17.93870665 20.96575943 -16.74933161 17.27804411 -15.3515625 13.4296875 C-15.12017578 12.73552734 -14.88878906 12.04136719 -14.65039062 11.32617188 C-12.12563484 4.38474149 -7.86516899 -0.5122907 0 0 Z M-4.0390625 15.4921875 C-3.0390625 18.4921875 -3.0390625 18.4921875 -3.0390625 18.4921875 Z " fill="#20490B" transform="translate(113.0390625,13.5078125)"/>
<path d="M0 0 C0.33 0 0.66 0 1 0 C1.33 1.65 1.66 3.3 2 5 C2.33 4.01 2.66 3.02 3 2 C9.56236279 3.60057629 13.81103797 7.24614454 17.9375 12.4375 C19.35901352 15.86585614 19.38792305 18.31473103 19 22 C18 24 17 26 16 28 C16.35921227 30.63622373 16.35921227 30.63622373 17 33 C17.65226562 33.11214844 18.30453125 33.22429687 18.9765625 33.33984375 C24.10882187 34.49800847 27.38990511 35.68361018 30.5 40.0625 C35.46075459 48.7788541 36.08416339 59.16092579 35 69 C33.62626005 72.24772135 32.49096549 74.50903451 30 77 C28.02 77 26.04 77 24 77 C24.66 71.72 25.32 66.44 26 61 C25.67 61 25.34 61 25 61 C24.89042969 60.41992188 24.78085938 59.83984375 24.66796875 59.2421875 C23.69027327 54.42524878 22.56007545 50.26679241 20 46 C19.01 45.505 19.01 45.505 18 45 C18 44.34 18 43.68 18 43 C18.66 42.67 19.32 42.34 20 42 C18.68 40.02 17.36 38.04 16 36 C15.67 36.99 15.34 37.98 15 39 C14.34 38.01 13.68 37.02 13 36 C10.70095589 35.59710671 10.70095589 35.59710671 8.125 35.75 C6.82949219 35.77320312 6.82949219 35.77320312 5.5078125 35.796875 C3.0226463 35.91330133 3.0226463 35.91330133 0.8046875 36.640625 C0.20914063 36.75921875 -0.38640625 36.8778125 -1 37 C-1.66 36.34 -2.32 35.68 -3 35 C-3.99 34.67 -4.98 34.34 -6 34 C-0.25 32 -0.25 32 2 32 C2 30.68 2 29.36 2 28 C1.38125 27.87625 0.7625 27.7525 0.125 27.625 C-2 27 -2 27 -4 25 C-6.57051911 24.14458599 -9.16617586 23.47263076 -11.78515625 22.78125 C-14 22 -14 22 -15 20 C-14.09378906 20.25136719 -13.18757813 20.50273438 -12.25390625 20.76171875 C-4.32621715 22.74993284 0.5260792 23.47923899 8 20 C6.86516076 16.59548229 6.44722063 16.3994436 3.4375 14.8125 C1.7359375 13.9153125 1.7359375 13.9153125 0 13 C0.0825 12.236875 0.165 11.47375 0.25 10.6875 C0.29166667 7.85416667 0.29166667 7.85416667 -2 6.1875 C-2.66 5.795625 -3.32 5.40375 -4 5 C-3.67 4.34 -3.34 3.68 -3 3 C-2.34 3.33 -1.68 3.66 -1 4 C-0.67 2.68 -0.34 1.36 0 0 Z " fill="#33522A" transform="translate(100,42)"/>
<path d="M0 0 C-0.33 0.66 -0.66 1.32 -1 2 C-0.34 2.33 0.32 2.66 1 3 C1 3.33 1 3.66 1 4 C1.66 3.67 2.32 3.34 3 3 C3.12375 3.639375 3.2475 4.27875 3.375 4.9375 C3.58125 5.618125 3.7875 6.29875 4 7 C6.95664519 8.4783226 9.74229737 8.06032783 13 8 C13.66 6.35 14.32 4.7 15 3 C17.64 4.32 20.28 5.64 23 7 C23 8.32 23 9.64 23 11 C16.0833944 14.10746049 11.24710019 14.10302072 4 12 C6.31 12.66 8.62 13.32 11 14 C-2.05085493 20.99152943 -23.23181948 18.03092514 -37 14 C-39.02516607 13.05200085 -41.03457356 12.06634839 -43 11 C-39.8745041 8.35534962 -36.91211733 7.15585285 -33 6 C-33 5.34 -33 4.68 -33 4 C-21.81638484 0.94468246 -11.57122788 -0.19798679 0 0 Z " fill="#70D604" transform="translate(85,52)"/>
<path d="M0 0 C3.76810265 2.10814553 6.49048029 4.93247645 8 9 C7.67181652 14.76665265 6.19160746 20.80839254 2 25 C-0.875 25.3125 -0.875 25.3125 -4 25 C-5.6953125 22.98046875 -5.6953125 22.98046875 -7 21 C-7.33773437 21.84304687 -7.67546875 22.68609375 -8.0234375 23.5546875 C-8.46945313 24.65039062 -8.91546875 25.74609375 -9.375 26.875 C-9.81585938 27.96554688 -10.25671875 29.05609375 -10.7109375 30.1796875 C-12 33 -12 33 -14 35 C-14.495 33.515 -14.495 33.515 -15 32 C-16.485 32.495 -16.485 32.495 -18 33 C-16.68 33.99 -15.36 34.98 -14 36 C-14.66 38.31 -15.32 40.62 -16 43 C-17.75 43.75 -17.75 43.75 -20 44 C-22.3125 42.5 -22.3125 42.5 -24 40 C-23.88012832 36.64359298 -23.54480077 34.05568398 -21.99609375 31.0546875 C-20.93036584 28.85636249 -20.56140516 27.03278488 -20.1875 24.625 C-16.80952546 7.00192353 -16.80952546 7.00192353 -11.1875 1.625 C-7.23819833 -0.38836948 -4.3362492 -1.08838127 0 0 Z M-6 15 C-5 18 -5 18 -5 18 Z " fill="#899A34" transform="translate(115,14)"/>
<path d="M0 0 C0.99 0.33 1.98 0.66 3 1 C2.89300781 1.75925781 2.78601563 2.51851562 2.67578125 3.30078125 C2.55589844 4.29464844 2.43601563 5.28851563 2.3125 6.3125 C2.18488281 7.29863281 2.05726562 8.28476562 1.92578125 9.30078125 C1.75306232 12.00754585 1.75306232 12.00754585 3.29296875 13.85546875 C5.0727569 15.27844567 5.0727569 15.27844567 8 15 C8.66 14.34 9.32 13.68 10 13 C10.495 14.485 10.495 14.485 11 16 C10.34 16 9.68 16 9 16 C8.505 17.485 8.505 17.485 8 19 C1.375 19.25 1.375 19.25 -2 17 C-2.495 15.515 -2.495 15.515 -3 14 C-3 15.65 -3 17.3 -3 19 C-3.66 18.67 -4.32 18.34 -5 18 C-5 16.35 -5 14.7 -5 13 C-5.99 12.67 -6.98 12.34 -8 12 C-7.67 11.67 -7.34 11.34 -7 11 C-14.91257047 10.8723779 -22.68074382 11.04971684 -30.375 13.0625 C-34 14 -34 14 -38 14 C-38 14.66 -38 15.32 -38 16 C-41.3 17.65 -44.6 19.3 -48 21 C-48.33 20.01 -48.66 19.02 -49 18 C-34.63266162 7.89580249 -18.1121657 6.33810756 -1 9 C-0.67 8.67 -0.34 8.34 0 8 C-4.45820633 7.91199127 -8.91618539 7.85927078 -13.375 7.8125 C-14.62667969 7.78736328 -15.87835938 7.76222656 -17.16796875 7.73632812 C-26.3324843 7.66435549 -34.03214967 8.54135571 -42 13.25 C-42.99 13.8275 -43.98 14.405 -45 15 C-45.66 14.67 -46.32 14.34 -47 14 C-47 13.01 -47 12.02 -47 11 C-43.3321148 9.03810791 -40.12751449 7.60698743 -36 7 C-36 6.01 -36 5.02 -36 4 C-28.23527229 1.87244785 -20.95822327 1.76413408 -12.9375 1.875 C-11.69033203 1.88402344 -10.44316406 1.89304688 -9.15820312 1.90234375 C-6.10526496 1.92573791 -3.05273694 1.95851826 0 2 C0 1.34 0 0.68 0 0 Z " fill="#4F782F" transform="translate(90,42)"/>
<path d="M0 0 C6.14919376 0.89759473 10.07125667 1.83650876 14 7 C19.47415933 15.83288081 19.98419981 25.79478532 19 36 C17.63075142 39.25773469 16.4954532 41.5045468 14 44 C12.02 44 10.04 44 8 44 C8.66 38.72 9.32 33.44 10 28 C9.67 28 9.34 28 9 28 C8.89042969 27.41992188 8.78085938 26.83984375 8.66796875 26.2421875 C7.69027327 21.42524878 6.56007545 17.26679241 4 13 C3.34 12.67 2.68 12.34 2 12 C2 11.34 2 10.68 2 10 C2.66 9.67 3.32 9.34 4 9 C3.34 7.88625 2.68 6.7725 2 5.625 C0 2.25 0 2.25 0 0 Z " fill="#354D2F" transform="translate(116,75)"/>
<path d="M0 0 C0.99 0.33 1.98 0.66 3 1 C1 5 -1 9 -3 13 C-2.34 12.67 -1.68 12.34 -1 12 C-1.2784375 12.8353125 -1.2784375 12.8353125 -1.5625 13.6875 C-2.08460703 16.4472086 -1.562597 18.24952578 -1 21 C-0.81124043 23.72128383 -0.86519604 26.25898606 -1 29 C-1.66 29.66 -2.32 30.32 -3 31 C-6.76814403 30.89233874 -8.50014605 29.5959776 -11.1875 27.1875 C-12.93100763 25.74474339 -12.93100763 25.74474339 -15 25 C-17.71201559 25.57527603 -19.92895909 26.61751867 -22.43359375 27.80078125 C-35.07954384 33.70992383 -52.48097341 32.20664173 -65.6640625 28.8515625 C-68 28 -68 28 -70 26 C-69.3603833 26.14074951 -68.7207666 26.28149902 -68.06176758 26.42651367 C-60.55519419 27.94984924 -53.33530415 28.34711279 -45.6875 28.3125 C-44.50502686 28.31121094 -43.32255371 28.30992187 -42.10424805 28.30859375 C-33.72722656 28.21640561 -26.04156088 27.49719451 -18 25 C-18.020625 24.21625 -18.04125 23.4325 -18.0625 22.625 C-18 20 -18 20 -17 18 C-16.071875 18.103125 -15.14375 18.20625 -14.1875 18.3125 C-13.135625 18.209375 -12.08375 18.10625 -11 18 C-9.2463436 15.66057656 -9.2463436 15.66057656 -8 13 C-7.01 12.34 -6.02 11.68 -5 11 C-5 10.01 -5 9.02 -5 8 C-4.01 7.34 -3.02 6.68 -2 6 C-2 4.68 -2 3.36 -2 2 C-1.34 2 -0.68 2 0 2 C0 1.34 0 0.68 0 0 Z " fill="#0D190B" transform="translate(120,116)"/>
<path d="M0 0 C2.37590142 3.70416126 2.20500286 6.92984573 2.125 11.25 C2.10695313 12.51328125 2.08890625 13.7765625 2.0703125 15.078125 C2.04710937 16.04234375 2.02390625 17.0065625 2 18 C2.33 18 2.66 18 3 18 C3 15.36 3 12.72 3 10 C3.66 10.33 4.32 10.66 5 11 C5.61875 9.7625 5.61875 9.7625 6.25 8.5 C6.8275 7.675 7.405 6.85 8 6 C9.32 6 10.64 6 12 6 C12.42000092 13.70001691 11.39215781 19.93313101 6.5625 26.125 C4 28 4 28 1.9375 28.0625 C-0.58979803 26.67656237 -2.13829763 25.21147675 -4 23 C-5.58091299 16.55823383 -5.55203442 10.12488261 -3 4 C-1.375 1.5625 -1.375 1.5625 0 0 Z " fill="#628159" transform="translate(19,90)"/>
<path d="M0 0 C0.33 0 0.66 0 1 0 C1.33 1.65 1.66 3.3 2 5 C2.33 4.01 2.66 3.02 3 2 C3.66 2.33 4.32 2.66 5 3 C5 3.66 5 4.32 5 5 C5.825 5.495 6.65 5.99 7.5 6.5 C8.325 6.995 9.15 7.49 10 8 C10 8.66 10 9.32 10 10 C10.928125 10.1546875 10.928125 10.1546875 11.875 10.3125 C14 11 14 11 16 14 C16.1953125 16.26171875 16.1953125 16.26171875 16.125 18.6875 C16.10695313 19.49574219 16.08890625 20.30398437 16.0703125 21.13671875 C16.04710938 21.75160156 16.02390625 22.36648437 16 23 C13.69 23.33 11.38 23.66 9 24 C9 23.34 9 22.68 9 22 C7.68 22.33 6.36 22.66 5 23 C5.99 22.01 6.98 21.02 8 20 C6.86516076 16.59548229 6.44722063 16.3994436 3.4375 14.8125 C2.303125 14.214375 1.16875 13.61625 0 13 C0.0825 12.236875 0.165 11.47375 0.25 10.6875 C0.29166667 7.85416667 0.29166667 7.85416667 -2 6.1875 C-2.66 5.795625 -3.32 5.40375 -4 5 C-3.67 4.34 -3.34 3.68 -3 3 C-2.34 3.33 -1.68 3.66 -1 4 C-0.67 2.68 -0.34 1.36 0 0 Z " fill="#32502A" transform="translate(100,42)"/>
<path d="M0 0 C1.50433594 0.01353516 1.50433594 0.01353516 3.0390625 0.02734375 C3.80992188 0.03894531 4.58078125 0.05054688 5.375 0.0625 C5.045 0.7225 4.715 1.3825 4.375 2.0625 C5.035 2.3925 5.695 2.7225 6.375 3.0625 C6.375 3.3925 6.375 3.7225 6.375 4.0625 C7.035 3.7325 7.695 3.4025 8.375 3.0625 C8.49875 3.701875 8.6225 4.34125 8.75 5 C8.95625 5.680625 9.1625 6.36125 9.375 7.0625 C12.33164519 8.5408226 15.11729737 8.12282783 18.375 8.0625 C19.035 6.4125 19.695 4.7625 20.375 3.0625 C23.015 4.3825 25.655 5.7025 28.375 7.0625 C28.375 8.3825 28.375 9.7025 28.375 11.0625 C21.37466303 14.20757893 16.68140071 14.04635715 9.375 12.0625 C7.71051375 11.71844418 6.04434283 11.38216139 4.375 11.0625 C4.045 9.7425 3.715 8.4225 3.375 7.0625 C2.385 7.5575 2.385 7.5575 1.375 8.0625 C1.375 7.4025 1.375 6.7425 1.375 6.0625 C0.715 6.0625 0.055 6.0625 -0.625 6.0625 C-0.955 5.4025 -1.285 4.7425 -1.625 4.0625 C-2.615 4.5575 -2.615 4.5575 -3.625 5.0625 C-3.625 4.4025 -3.625 3.7425 -3.625 3.0625 C-4.945 2.4025 -6.265 1.7425 -7.625 1.0625 C-4.98041621 -0.25979189 -2.94738699 -0.03427194 0 0 Z " fill="#79C538" transform="translate(79.625,51.9375)"/>
<path d="M0 0 C0.66 0.99 1.32 1.98 2 3 C1.01 4.485 1.01 4.485 0 6 C-0.32026414 9.51305609 -0.32026414 9.51305609 1 13 C3.47765465 14.83989844 6.1409406 15.88077637 9 17 C10.33929318 17.65461134 11.67450112 18.31788934 13 19 C12.401875 19.061875 11.80375 19.12375 11.1875 19.1875 C8.12856542 20.3236757 7.44958901 22.17330142 6 25 C5.01 24.34 4.02 23.68 3 23 C2.8125 20.375 2.8125 20.375 3 18 C1.35 18.66 -0.3 19.32 -2 20 C-5.25356157 17.58606722 -6.37458792 15.52888801 -7 11.625 C-7.26388914 7.9905268 -6.96388727 6.92777453 -5.25 3.5 C-3 1 -3 1 0 0 Z " fill="#5D7F53" transform="translate(38,49)"/>
<path d="M0 0 C0.495 3.465 0.495 3.465 1 7 C3.31 7.66 5.62 8.32 8 9 C8 9.33 8 9.66 8 10 C2.375 10.25 2.375 10.25 -1 8 C-1.495 6.515 -1.495 6.515 -2 5 C-2 6.65 -2 8.3 -2 10 C-2.66 9.67 -3.32 9.34 -4 9 C-4 7.35 -4 5.7 -4 4 C-4.99 3.67 -5.98 3.34 -7 3 C-6.67 2.67 -6.34 2.34 -6 2 C-13.91257047 1.8723779 -21.68074382 2.04971684 -29.375 4.0625 C-33 5 -33 5 -37 5 C-37 5.66 -37 6.32 -37 7 C-41.95 9.475 -41.95 9.475 -47 12 C-47.33 11.01 -47.66 10.02 -48 9 C-33.89525754 -0.91952023 -16.86253976 -3.06591632 0 0 Z " fill="#447C09" transform="translate(89,51)"/>
<path d="M0 0 C0.66 0 1.32 0 2 0 C3.15110388 1.18495988 4.30064601 2.37148528 5.44140625 3.56640625 C7.7754725 5.71327922 10.41710746 7.23825248 13.12890625 8.86328125 C15.19178042 10.11650961 17.10799001 11.50215876 19 13 C18.175 12.87625 17.35 12.7525 16.5 12.625 C12.05833984 13.10089216 10.20279811 14.88667878 6.9296875 17.78515625 C5 19 5 19 2.8203125 18.74609375 C1 18 1 18 0 17 C-0.3382348 12.18512819 0.02905476 7.71601976 1 3 C0.67 2.01 0.34 1.02 0 0 Z " fill="#22301D" transform="translate(31,129)"/>
<path d="M0 0 C1.4391134 0.28359887 2.87625518 0.57721399 4.3125 0.875 C5.11300781 1.03742188 5.91351563 1.19984375 6.73828125 1.3671875 C9 2 9 2 12 4 C11.67 4.99 11.34 5.98 11 7 C11.95849206 10.83396824 12.90566277 13.46826954 16 16 C14.68 16.33 13.36 16.66 12 17 C11.67 18.98 11.34 20.96 11 23 C9.13448574 19.41247258 7.57464072 15.72187807 6 12 C4.68 12 3.36 12 2 12 C2 11.34 2 10.68 2 10 C2.66 9.67 3.32 9.34 4 9 C3.34 7.88625 2.68 6.7725 2 5.625 C0 2.25 0 2.25 0 0 Z " fill="#253A1F" transform="translate(116,75)"/>
<path d="M0 0 C0.804375 0.185625 1.60875 0.37125 2.4375 0.5625 C3.0975 0.2325 3.7575 -0.0975 4.4375 -0.4375 C4.7675 3.1925 5.0975 6.8225 5.4375 10.5625 C3.4375 6.5625 3.4375 6.5625 2.4375 3.5625 C-0.85325996 3.94154208 -0.85325996 3.94154208 -3.5625 5.5625 C-3.63429964 7.08178038 -3.64642007 8.60417482 -3.625 10.125 C-3.61597656 10.95128906 -3.60695313 11.77757813 -3.59765625 12.62890625 C-3.58605469 13.26699219 -3.57445312 13.90507813 -3.5625 14.5625 C-2.9025 14.5625 -2.2425 14.5625 -1.5625 14.5625 C-1.2325 14.2325 -0.9025 13.9025 -0.5625 13.5625 C1.10367115 13.52186168 2.77138095 13.519779 4.4375 13.5625 C3.81875 13.748125 3.2 13.93375 2.5625 14.125 C-0.61852866 16.27687233 -0.75701947 18.93783763 -1.5625 22.5625 C-2.2225 21.5725 -2.8825 20.5825 -3.5625 19.5625 C-3.5625 22.5325 -3.5625 25.5025 -3.5625 28.5625 C-4.2225 28.8925 -4.8825 29.2225 -5.5625 29.5625 C-6.74931726 26.00204823 -6.65939832 23.12441663 -6.625 19.375 C-6.61597656 18.10269531 -6.60695313 16.83039063 -6.59765625 15.51953125 C-6.58605469 14.54371094 -6.57445312 13.56789063 -6.5625 12.5625 C-7.5525 12.5625 -8.5425 12.5625 -9.5625 12.5625 C-10.5625 9.5625 -10.5625 9.5625 -9.671875 7.58984375 C-9.22328125 6.90019531 -8.7746875 6.21054688 -8.3125 5.5 C-7.65507812 4.46166016 -7.65507812 4.46166016 -6.984375 3.40234375 C-4.8581295 0.65107553 -3.52994158 -0.60267295 0 0 Z " fill="#1C3517" transform="translate(26.5625,81.4375)"/>
<path d="M0 0 C1.10720735 4.42882939 1.22325051 8.46057302 1 13 C0.34 13.66 -0.32 14.32 -1 15 C-5.39629018 14.76236269 -7.77258856 12.85856441 -11 10 C-10.62207203 7.32543283 -10.20233084 6.19388186 -8.22265625 4.296875 C-7.50980469 3.78640625 -6.79695313 3.2759375 -6.0625 2.75 C-5.35222656 2.22921875 -4.64195313 1.7084375 -3.91015625 1.171875 C-2 0 -2 0 0 0 Z " fill="#2B3E28" transform="translate(118,132)"/>
<path d="M0 0 C2.37619153 3.69423527 2.1438678 6.81795766 2 11.125 C1.83260539 14.77632861 1.83260539 14.77632861 2 18 C2.66 18.66 3.32 19.32 4 20 C3.625 22.625 3.625 22.625 3 25 C2.34 25 1.68 25 1 25 C-1.09350689 21.5980513 -1.17942163 18.94727588 -1 15 C-1.66 15 -2.32 15 -3 15 C-3 17.64 -3 20.28 -3 23 C-3.33 23 -3.66 23 -4 23 C-5.79861111 8.19791667 -5.79861111 8.19791667 -1.375 1.5625 C-0.92125 1.046875 -0.4675 0.53125 0 0 Z " fill="#4E7646" transform="translate(19,90)"/>
<path d="M0 0 C0.33 0 0.66 0 1 0 C1.36923077 4.55384615 1.36923077 4.55384615 -0.5 6.8125 C-0.995 7.204375 -1.49 7.59625 -2 8 C-2 7.01 -2 6.02 -2 5 C-2.66 4.67 -3.32 4.34 -4 4 C-4 4.66 -4 5.32 -4 6 C-12.91 6 -21.82 6 -31 6 C-28.38058783 4.25372522 -26.96175123 3.61277612 -24 3 C-24.33 2.34 -24.66 1.68 -25 1 C-16.48627215 0.68725081 -8.3969326 1.62707087 0 3 C0 2.01 0 1.02 0 0 Z " fill="#304526" transform="translate(94,38)"/>
<path d="M0 0 C2.02334495 2.22362528 3.01080877 3.33526091 2.9609375 6.40234375 C0.66533066 16.33466934 0.66533066 16.33466934 -3 20 C-5.9375 20.1875 -5.9375 20.1875 -9 20 C-11.34914492 17.65085508 -11.73140357 16.04320554 -12.625 12.875 C-12.88539062 11.96492188 -13.14578125 11.05484375 -13.4140625 10.1171875 C-13.60742188 9.41851562 -13.80078125 8.71984375 -14 8 C-12.35 8 -10.7 8 -9 8 C-8.896875 9.11375 -8.79375 10.2275 -8.6875 11.375 C-8.460625 12.57125 -8.23375 13.7675 -8 15 C-7.01 15.66 -6.02 16.32 -5 17 C-4.896875 16.443125 -4.79375 15.88625 -4.6875 15.3125 C-3.86866423 12.55823422 -2.54146219 10.41272343 -1 8 C-1.66 7.67 -2.32 7.34 -3 7 C-2.34 6.34 -1.68 5.68 -1 5 C-0.35232207 2.42938689 -0.35232207 2.42938689 0 0 Z M-11 10 C-10 13 -10 13 -10 13 Z " fill="#585F33" transform="translate(120,19)"/>
<path d="M0 0 C2.046875 1.609375 2.046875 1.609375 4 4 C3.953125 7.015625 3.953125 7.015625 3.25 10.25 C3.02828125 11.32765625 2.8065625 12.4053125 2.578125 13.515625 C2.38734375 14.33546875 2.1965625 15.1553125 2 16 C1.01 16 0.02 16 -1 16 C-1.66 17.98 -2.32 19.96 -3 22 C-3.33 22 -3.66 22 -4 22 C-6.2642463 15.10952386 -5.9134648 10.62578284 -3 4 C-2.34 4 -1.68 4 -1 4 C-0.67 2.68 -0.34 1.36 0 0 Z " fill="#77A86A" transform="translate(36,70)"/>
<path d="M0 0 C0.66 3.63 1.32 7.26 2 11 C1.071875 10.938125 0.14375 10.87625 -0.8125 10.8125 C-3.98395103 10.69105736 -3.98395103 10.69105736 -5.875 12.5 C-6.24625 12.995 -6.6175 13.49 -7 14 C-7.92015848 11.23952457 -8.19267245 9.36637731 -8.25 6.5 C-8.27578125 5.7265625 -8.3015625 4.953125 -8.328125 4.15625 C-8 2 -8 2 -6.796875 0.15625 C-5 -1 -5 -1 0 0 Z " fill="#6D9561" transform="translate(30,85)"/>
<path d="M0 0 C0.33 0 0.66 0 1 0 C1 2.31 1 4.62 1 7 C1.99 6.67 2.98 6.34 4 6 C7.40996627 7.17217591 9.21992751 8.88487315 11 12 C11.1875 14.75 11.1875 14.75 11 17 C5.95749572 17 4.22094347 15.59750368 0 13 C0.0825 12.236875 0.165 11.47375 0.25 10.6875 C0.29166667 7.85416667 0.29166667 7.85416667 -2 6.1875 C-2.66 5.795625 -3.32 5.40375 -4 5 C-3.67 4.34 -3.34 3.68 -3 3 C-2.34 3.33 -1.68 3.66 -1 4 C-0.67 2.68 -0.34 1.36 0 0 Z " fill="#627D26" transform="translate(100,42)"/>
<path d="M0 0 C5.33759742 0.32349075 8.408405 3.35519619 12 7 C15.1704745 10.98866147 15.53114165 13.95415434 15 19 C13.19221261 24.12206427 10.81066864 26.49444342 6 29 C5.01 28.67 4.02 28.34 3 28 C6.75 25 6.75 25 9 25 C9.33 23.35 9.66 21.7 10 20 C10.66 20 11.32 20 12 20 C11.88541307 18.56163249 11.75790884 17.12429034 11.625 15.6875 C11.55539063 14.88699219 11.48578125 14.08648437 11.4140625 13.26171875 C11.10435574 10.72775559 11.10435574 10.72775559 9 8 C8.01 7.67 7.02 7.34 6 7 C4.97895449 6.02149805 3.9793879 5.02019573 3 4 C2.01 3.34 1.02 2.68 0 2 C0 1.34 0 0.68 0 0 Z " fill="#63825B" transform="translate(104,45)"/>
<path d="M0 0 C0.66 0.33 1.32 0.66 2 1 C3.15243755 4.45731264 3.16824837 7.23259213 3.1875 10.875 C3.20167969 12.08929688 3.21585938 13.30359375 3.23046875 14.5546875 C3.01047255 17.84344421 2.41715618 20.05365948 1 23 C0.34 23 -0.32 23 -1 23 C-0.938125 22.21625 -0.87625 21.4325 -0.8125 20.625 C-0.874375 19.75875 -0.93625 18.8925 -1 18 C-1.99 17.34 -2.98 16.68 -4 16 C-3.44562188 12.02695682 -2.51728958 8.69839335 -1 5 C-0.63128912 3.34080104 -0.28718326 1.6752357 0 0 Z " fill="#35502E" transform="translate(132,93)"/>
<path d="M0 0 C0.88300781 0.23976562 1.76601562 0.47953125 2.67578125 0.7265625 C10.76275004 2.7244173 16.95364149 3.28253844 25 1 C25 1.66 25 2.32 25 3 C26.32 3.33 27.64 3.66 29 4 C28.34 5.32 27.68 6.64 27 8 C27 7.01 27 6.02 27 5 C25.35 5.66 23.7 6.32 22 7 C22 7.99 22 8.98 22 10 C20.35 10.33 18.7 10.66 17 11 C17 10.01 17 9.02 17 8 C16.38125 7.87625 15.7625 7.7525 15.125 7.625 C13 7 13 7 11 5 C8.42948089 4.14458599 5.83382414 3.47263076 3.21484375 2.78125 C1 2 1 2 0 0 Z " fill="#355925" transform="translate(85,62)"/>
<path d="M0 0 C-0.33 0.99 -0.66 1.98 -1 3 C-4.63 3 -8.26 3 -12 3 C-12 3.66 -12 4.32 -12 5 C-13.0725 5.20625 -14.145 5.4125 -15.25 5.625 C-19.70591174 7.2588343 -20.77777608 8.91110799 -23 13 C-25.31 12.01 -27.62 11.02 -30 10 C-26.8745041 7.35534962 -23.91211733 6.15585285 -20 5 C-20 4.34 -20 3.68 -20 3 C-13.19925959 1.09579269 -7.08076251 -0.40850553 0 0 Z " fill="#64BC0C" transform="translate(72,53)"/>
<path d="M0 0 C2 0 2 0 4.5625 2.3125 C7 5 7 5 8 8 C6.5625 11.1875 6.5625 11.1875 5 14 C2.625 13.6875 2.625 13.6875 0 13 C-2.58772586 9.1184112 -1.87719799 7.46573523 -1 3 C-0.67 2.01 -0.34 1.02 0 0 Z " fill="#E8F4CA" transform="translate(93,44)"/>
<path d="M0 0 C0 0.66 0 1.32 0 2 C-1.07378906 2.31453125 -2.14757812 2.6290625 -3.25390625 2.953125 C-4.69024034 3.38496401 -6.12643068 3.81728132 -7.5625 4.25 C-8.61920898 4.55744141 -8.61920898 4.55744141 -9.69726562 4.87109375 C-13.38066331 5.99138982 -16.59666191 7.2425667 -19.90234375 9.234375 C-20.92457031 9.81703125 -21.94679687 10.3996875 -23 11 C-23.66 10.67 -24.32 10.34 -25 10 C-25 9.01 -25 8.02 -25 7 C-23.01030767 5.97964496 -21.00699249 4.98589105 -19 4 C-18.32324219 3.64035156 -17.64648438 3.28070313 -16.94921875 2.91015625 C-11.1608772 0.0211261 -6.42273433 -0.48271072 0 0 Z " fill="#5D9323" transform="translate(68,46)"/>
<path d="M0 0 C2.64 1.32 5.28 2.64 8 4 C8 5.32 8 6.64 8 8 C4.6853333 10.02907167 2.5684021 10.12742133 -1.25 9.625 C-2.14203125 9.51414062 -3.0340625 9.40328125 -3.953125 9.2890625 C-4.62859375 9.19367188 -5.3040625 9.09828125 -6 9 C-6 8.34 -6 7.68 -6 7 C-6.66 6.67 -7.32 6.34 -8 6 C-6.576875 5.9071875 -6.576875 5.9071875 -5.125 5.8125 C-4.09375 5.544375 -3.0625 5.27625 -2 5 C-0.54708727 2.53744315 -0.54708727 2.53744315 0 0 Z " fill="#82B94C" transform="translate(100,55)"/>
<path d="M0 0 C0.33 0 0.66 0 1 0 C1 3.3 1 6.6 1 10 C2.32 10.66 3.64 11.32 5 12 C5.125 14.875 5.125 14.875 5 18 C4.34 18.66 3.68 19.32 3 20 C1.02 20 -0.96 20 -3 20 C-2.01 13.4 -1.02 6.8 0 0 Z " fill="#1E3418" transform="translate(127,99)"/>
<path d="M0 0 C2.67857172 0.36196915 4.60980914 0.73987276 6.875 2.25 C8 4 8 4 7.6875 6.6875 C7.460625 7.450625 7.23375 8.21375 7 9 C5.02 9.66 3.04 10.32 1 11 C-1.30441554 7.54337669 -1.25860135 6.05142119 -1 2 C-0.67 1.34 -0.34 0.68 0 0 Z " fill="#D4DBB6" transform="translate(100,25)"/>
<path d="M0 0 C0.99 0.33 1.98 0.66 3 1 C1 5 -1 9 -3 13 C-2.34 12.67 -1.68 12.34 -1 12 C-2.28207359 14.86001033 -3.49151236 17.07039412 -6 19 C-7.32 19 -8.64 19 -10 19 C-9.45032426 15.15226983 -7.67967752 13.67967752 -5 11 C-5 10.01 -5 9.02 -5 8 C-4.01 7.34 -3.02 6.68 -2 6 C-2 4.68 -2 3.36 -2 2 C-1.34 2 -0.68 2 0 2 C0 1.34 0 0.68 0 0 Z " fill="#20371B" transform="translate(120,116)"/>
<path d="M0 0 C4 1 4 1 6 3 C6.333728 6.13704316 6.52849028 8.16554166 4.8125 10.875 C3 12 3 12 -2 12 C-1.34 8.04 -0.68 4.08 0 0 Z " fill="#E2E4C6" transform="translate(114,15)"/>
<path d="M0 0 C0.721875 0.78375 1.44375 1.5675 2.1875 2.375 C4.8718824 4.88042357 6.56473327 5.91517893 10 7 C12.50357861 7.8345262 14.66785852 8.79371992 17 10 C17 10.66 17 11.32 17 12 C17.66 12.33 18.32 12.66 19 13 C19 13.66 19 14.32 19 15 C16.69 14.67 14.38 14.34 12 14 C12 13.34 12 12.68 12 12 C11.42765625 11.72929687 10.8553125 11.45859375 10.265625 11.1796875 C7.94896878 9.97342857 5.8742845 8.64347003 3.75 7.125 C3.04359375 6.63257813 2.3371875 6.14015625 1.609375 5.6328125 C0 4 0 4 0 0 Z " fill="#3D5A34" transform="translate(31,123)"/>
<path d="M0 0 C2.64 0 5.28 0 8 0 C7.67 2.64 7.34 5.28 7 8 C5.68 8.33 4.36 8.66 3 9 C3 9.99 3 10.98 3 12 C1.0625 11.625 1.0625 11.625 -1 11 C-1.33 10.34 -1.66 9.68 -2 9 C0.45454545 3.27272727 0.45454545 3.27272727 3 2 C2.01 1.34 1.02 0.68 0 0 Z " fill="#839221" transform="translate(107,14)"/>
<path d="M0 0 C0.78375 0.00451172 1.5675 0.00902344 2.375 0.01367188 C4.29170014 0.02535907 6.20836048 0.04329092 8.125 0.0625 C8.455 2.3725 8.785 4.6825 9.125 7.0625 C11.435 7.7225 13.745 8.3825 16.125 9.0625 C16.125 9.3925 16.125 9.7225 16.125 10.0625 C10.5 10.3125 10.5 10.3125 7.125 8.0625 C6.795 7.0725 6.465 6.0825 6.125 5.0625 C6.125 6.7125 6.125 8.3625 6.125 10.0625 C5.465 9.7325 4.805 9.4025 4.125 9.0625 C4.125 7.4125 4.125 5.7625 4.125 4.0625 C3.135 3.7325 2.145 3.4025 1.125 3.0625 C1.455 2.7325 1.785 2.4025 2.125 2.0625 C-3.485 2.0625 -9.095 2.0625 -14.875 2.0625 C-14.875 1.7325 -14.875 1.4025 -14.875 1.0625 C-9.85891475 0.0448597 -5.08891694 -0.05606434 0 0 Z " fill="#467C18" transform="translate(80.875,50.9375)"/>
<path d="M0 0 C0.92683594 0.00451172 1.85367188 0.00902344 2.80859375 0.01367188 C5.08079709 0.02538426 7.35286388 0.04178628 9.625 0.0625 C9.625 0.3925 9.625 0.7225 9.625 1.0625 C4.345 1.7225 -0.935 2.3825 -6.375 3.0625 C-6.375 3.7225 -6.375 4.3825 -6.375 5.0625 C-14.125 4.1875 -14.125 4.1875 -16.375 3.0625 C-16.375 2.4025 -16.375 1.7425 -16.375 1.0625 C-10.89230931 -0.09414737 -5.57160726 -0.05166255 0 0 Z " fill="#4A5E41" transform="translate(69.375,39.9375)"/>
<path d="M0 0 C3.63 0.66 7.26 1.32 11 2 C6.06739161 4.4663042 2.8356895 5.12678558 -2.640625 5.09765625 C-3.71054688 5.09443359 -4.78046875 5.09121094 -5.8828125 5.08789062 C-6.99398437 5.07951172 -8.10515625 5.07113281 -9.25 5.0625 C-10.93996094 5.05573242 -10.93996094 5.05573242 -12.6640625 5.04882812 C-15.44276217 5.03705397 -18.22135409 5.0206084 -21 5 C-21 4.67 -21 4.34 -21 4 C-11.1 3.505 -11.1 3.505 -1 3 C-0.67 2.01 -0.34 1.02 0 0 Z " fill="#7BC233" transform="translate(85,64)"/>
<path d="M0 0 C1.65 0 3.3 0 5 0 C5.33 2.31 5.66 4.62 6 7 C9.28696233 7.79953138 10.71023192 8.09658936 14 7 C12.125 10.875 12.125 10.875 11 12 C8.0625 12.1875 8.0625 12.1875 5 12 C2.65085508 9.65085508 2.26859643 8.04320554 1.375 4.875 C1.11460938 3.96492188 0.85421875 3.05484375 0.5859375 2.1171875 C0.39257812 1.41851563 0.19921875 0.71984375 0 0 Z M3 2 C4 5 4 5 4 5 Z " fill="#565A3C" transform="translate(106,27)"/>
<path d="M0 0 C0.33 0 0.66 0 1 0 C1.66 2.64 2.32 5.28 3 8 C5.97065509 7.65772428 5.97065509 7.65772428 9 7 C9.33 6.34 9.66 5.68 10 5 C9.71758359 6.46015291 9.42373386 7.91809793 9.125 9.375 C8.96257812 10.18710937 8.80015625 10.99921875 8.6328125 11.8359375 C8 14 8 14 6 16 C5.67 14.68 5.34 13.36 5 12 C4.34 12 3.68 12 3 12 C0.23226791 8.67872149 -1.07523578 7.01568308 -0.75 2.625 C-0.5025 1.75875 -0.255 0.8925 0 0 Z " fill="#656D40" transform="translate(98,27)"/>
<path d="M0 0 C0 0.66 0 1.32 0 2 C-1.71866217 3.0384211 -3.45044598 4.05514635 -5.1875 5.0625 C-6.15042969 5.63097656 -7.11335938 6.19945312 -8.10546875 6.78515625 C-11.32916541 8.13815174 -12.72520421 8.04769518 -16 7 C-11.77028022 2.09352505 -6.55854758 -0.5962316 0 0 Z " fill="#4F624A" transform="translate(52,43)"/>
<path d="M0 0 C4.38889325 0.66498383 7.9811485 2.18757677 12 4 C11.401875 4.061875 10.80375 4.12375 10.1875 4.1875 C7.12856542 5.3236757 6.44958901 7.17330142 5 10 C4.01 9.34 3.02 8.68 2 8 C1.8125 5.375 1.8125 5.375 2 3 C1.34 2.67 0.68 2.34 0 2 C0 1.34 0 0.68 0 0 Z " fill="#618C56" transform="translate(39,64)"/>
<path d="M0 0 C1.60294922 0.01353516 1.60294922 0.01353516 3.23828125 0.02734375 C4.04652344 0.03894531 4.85476562 0.05054688 5.6875 0.0625 C5.3575 1.3825 5.0275 2.7025 4.6875 4.0625 C2.39524565 3.94878503 0.10367612 3.82119036 -2.1875 3.6875 C-3.46367188 3.61789063 -4.73984375 3.54828125 -6.0546875 3.4765625 C-9.3125 3.0625 -9.3125 3.0625 -11.3125 1.0625 C-7.47525828 0.15836327 -3.93747726 -0.04326898 0 0 Z " fill="#669536" transform="translate(85.3125,45.9375)"/>
<path d="M0 0 C0.226875 0.598125 0.45375 1.19625 0.6875 1.8125 C2.33307014 4.5551169 4.27035797 5.41968093 7 7 C7 7.66 7 8.32 7 9 C8.98 9 10.96 9 13 9 C13.33 9.66 13.66 10.32 14 11 C12.10399631 10.68853528 10.20820413 10.37578283 8.3125 10.0625 C7.25675781 9.88847656 6.20101562 9.71445313 5.11328125 9.53515625 C2.39750396 9.06832879 -0.30124235 8.55577384 -3 8 C-3 7.01 -3 6.02 -3 5 C-2.34 4.67 -1.68 4.34 -1 4 C-0.34786708 1.97536745 -0.34786708 1.97536745 0 0 Z " fill="#7EC330" transform="translate(87,55)"/>
<path d="M0 0 C0 4.24645065 -1.81750806 6.38524772 -4 10 C-5.32 9.34 -6.64 8.68 -8 8 C-8 6.35 -8 4.7 -8 3 C-5.36 2.01 -2.72 1.02 0 0 Z " fill="#90A222" transform="translate(119,26)"/>
<path d="M0 0 C2 2 2 2 2.1953125 4.1640625 C2.17210938 4.97617188 2.14890625 5.78828125 2.125 6.625 C2.10695313 7.44226563 2.08890625 8.25953125 2.0703125 9.1015625 C2.03550781 10.04128906 2.03550781 10.04128906 2 11 C1.55011719 10.52949219 1.10023437 10.05898437 0.63671875 9.57421875 C-1.12016815 7.88442061 -2.78764932 6.99174341 -5 6 C-4.34 5.67 -3.68 5.34 -3 5 C-3 4.01 -3 3.02 -3 2 C-2.01 1.34 -1.02 0.68 0 0 Z " fill="#2B4525" transform="translate(114,70)"/>
<path d="M0 0 C0.66 0 1.32 0 2 0 C2.474375 0.495 2.94875 0.99 3.4375 1.5 C4.99969942 3.34626591 4.99969942 3.34626591 8 3 C8.66 2.34 9.32 1.68 10 1 C10.33 1.99 10.66 2.98 11 4 C10.34 4 9.68 4 9 4 C8.67 4.99 8.34 5.98 8 7 C5.36 6.34 2.72 5.68 0 5 C-0.33 3.68 -0.66 2.36 -1 1 C-0.67 0.67 -0.34 0.34 0 0 Z " fill="#708D27" transform="translate(90,54)"/>
<path d="M0 0 C0.66 0 1.32 0 2 0 C2.1546875 1.423125 2.1546875 1.423125 2.3125 2.875 C2.68539295 6.29107501 2.68539295 6.29107501 6 8 C5.34 8 4.68 8 4 8 C4 8.99 4 9.98 4 11 C4.66 11 5.32 11 6 11 C6 11.66 6 12.32 6 13 C4 12 2 11 0 10 C0 6.7 0 3.4 0 0 Z " fill="#7CA36F" transform="translate(16,105)"/>
<path d="M0 0 C3.01954551 1.7385262 5.94159957 3.59021474 8.8125 5.5625 C9.71935547 6.18318359 9.71935547 6.18318359 10.64453125 6.81640625 C11.09183594 7.20699219 11.53914063 7.59757813 12 8 C12 8.66 12 9.32 12 10 C12.99 10.33 13.98 10.66 15 11 C14.01 11.495 14.01 11.495 13 12 C11.53426066 11.09522263 10.07764244 10.17565859 8.625 9.25 C7.81289063 8.73953125 7.00078125 8.2290625 6.1640625 7.703125 C3.91444321 5.9326665 3.04093152 4.63092581 2 2 C1.34 2 0.68 2 0 2 C0 1.34 0 0.68 0 0 Z " fill="#719167" transform="translate(31,127)"/>
<path d="M0 0 C0.99 0.33 1.98 0.66 3 1 C2.34 3.31 1.68 5.62 1 8 C-0.8125 8.6875 -0.8125 8.6875 -3 9 C-4.75 7.5625 -4.75 7.5625 -6 6 C-5.01 5.67 -4.02 5.34 -3 5 C-1.2912354 3.62485459 -1.2912354 3.62485459 0 2 C0 1.34 0 0.68 0 0 Z " fill="#B8C58C" transform="translate(98,49)"/>
<path d="M0 0 C0.66 0.33 1.32 0.66 2 1 C2 2.32 2 3.64 2 5 C2.66 5.33 3.32 5.66 4 6 C2.68 6.99 1.36 7.98 0 9 C-1.32 8.34 -2.64 7.68 -4 7 C-4 5.35 -4 3.7 -4 2 C-2.515 2.99 -2.515 2.99 -1 4 C-0.67 2.68 -0.34 1.36 0 0 Z " fill="#7AD31B" transform="translate(82,58)"/>
<path d="M0 0 C1.32 1.32 2.64 2.64 4 4 C3.953125 6.578125 3.953125 6.578125 3.25 9.25 C3.02828125 10.14203125 2.8065625 11.0340625 2.578125 11.953125 C2.38734375 12.62859375 2.1965625 13.3040625 2 14 C1.67 13.34 1.34 12.68 1 12 C0.34 12 -0.32 12 -1 12 C-0.67 8.04 -0.34 4.08 0 0 Z " fill="#6FA460" transform="translate(36,70)"/>
<path d="M0 0 C2 1.1875 2 1.1875 4 3 C4.25 5.6875 4.25 5.6875 4 8 C-1.04250428 8 -2.77905653 6.59750368 -7 4 C-6.67 3.34 -6.34 2.68 -6 2 C-4.824375 2.7425 -4.824375 2.7425 -3.625 3.5 C-1.21447673 5.16537965 -1.21447673 5.16537965 1 5 C0.67 3.35 0.34 1.7 0 0 Z " fill="#496E2A" transform="translate(107,51)"/>
<path d="M0 0 C0.66 0.33 1.32 0.66 2 1 C2 1.66 2 2.32 2 3 C2.825 3.495 3.65 3.99 4.5 4.5 C5.325 4.995 6.15 5.49 7 6 C7 6.66 7 7.32 7 8 C7.99 8 8.98 8 10 8 C9.67 10.31 9.34 12.62 9 15 C8.67 15 8.34 15 8 15 C7 12 6 9 5 6 C2.03 5.505 2.03 5.505 -1 5 C-0.67 3.35 -0.34 1.7 0 0 Z " fill="#1F3815" transform="translate(103,44)"/>
<path d="M0 0 C2.01822917 0.06510417 4.03645833 0.13020833 6.0546875 0.1953125 C3.0546875 2.1953125 3.0546875 2.1953125 1.0546875 2.1953125 C0.7865625 2.8346875 0.5184375 3.4740625 0.2421875 4.1328125 C-0.9453125 6.1953125 -0.9453125 6.1953125 -3.9453125 7.1953125 C-4.0703125 4.8203125 -4.0703125 4.8203125 -3.9453125 2.1953125 C-1.9453125 0.1953125 -1.9453125 0.1953125 0 0 Z " fill="#C8CF9C" transform="translate(106.9453125,14.8046875)"/>
<path d="M0 0 C1.41377341 2.63904371 2.37240135 5.07120629 3 8 C2.34 8 1.68 8 1 8 C1 11.3 1 14.6 1 18 C0.67 18 0.34 18 0 18 C-1.33257403 5.33029613 -1.33257403 5.33029613 0 0 Z " fill="#354D2F" transform="translate(15,95)"/>
<path d="M0 0 C3.81287042 1.44626119 5.32707177 3.30194812 7 7 C6.6875 9.3125 6.6875 9.3125 6 11 C3.57223333 9.70519111 2.23032326 8.64161481 1.2890625 6.01953125 C0.80217802 4.0261274 0.39608139 2.01341375 0 0 Z " fill="#556C4C" transform="translate(126,80)"/>
<path d="M0 0 C0.99 0.33 1.98 0.66 3 1 C3.33 1.99 3.66 2.98 4 4 C3.34 4.66 2.68 5.32 2 6 C1.35232207 8.57061311 1.35232207 8.57061311 1 11 C0.34 10.67 -0.32 10.34 -1 10 C-1.125 2.25 -1.125 2.25 0 0 Z " fill="#9BA856" transform="translate(96,33)"/>
<path d="M0 0 C1.98 0 3.96 0 6 0 C6 0.99 6 1.98 6 3 C1.77777778 6 1.77777778 6 -1 6 C-0.67 4.02 -0.34 2.04 0 0 Z " fill="#2D4328" transform="translate(103,134)"/>
<path d="M0 0 C0.66 0.33 1.32 0.66 2 1 C2 2.65 2 4.3 2 6 C0.02 5.34 -1.96 4.68 -4 4 C-4.66 5.32 -5.32 6.64 -6 8 C-6 5.69 -6 3.38 -6 1 C-3 1 -3 1 0 2 C0 1.34 0 0.68 0 0 Z " fill="#4A6B43" transform="translate(40,66)"/>
<path d="M0 0 C0.556875 0.7734375 0.556875 0.7734375 1.125 1.5625 C0.795 2.5525 0.465 3.5425 0.125 4.5625 C-5.625 2.9375 -5.625 2.9375 -7.875 -0.4375 C-2.33653846 -1.79134615 -2.33653846 -1.79134615 0 0 Z " fill="#709E40" transform="translate(107.875,52.4375)"/>
<path d="M0 0 C4.83256305 0.41421969 6.82679218 2.46413986 10 6 C8.1875 6.6875 8.1875 6.6875 6 7 C4.4375 5.6875 4.4375 5.6875 3 4 C2.01 3.34 1.02 2.68 0 2 C0 1.34 0 0.68 0 0 Z " fill="#485844" transform="translate(104,45)"/>
<path d="M0 0 C0.99 0.33 1.98 0.66 3 1 C1.60466338 5.43970742 -0.56128532 7.90515679 -4 11 C-4.99 11.495 -4.99 11.495 -6 12 C-4 8 -2 4 0 0 Z " fill="#53664C" transform="translate(121,119)"/>
<path d="M0 0 C0.99 0.495 0.99 0.495 2 1 C2.96070434 3.88211302 3.10581883 5.69850044 3.0625 8.6875 C3.05347656 9.49574219 3.04445312 10.30398437 3.03515625 11.13671875 C3.02355469 11.75160156 3.01195312 12.36648437 3 13 C1 12 1 12 0.375 10.4375 C-0.16368951 6.93601819 -0.05903219 3.54193167 0 0 Z " fill="#4D6E44" transform="translate(132,93)"/>
<path d="M0 0 C1.76462683 3.08809695 2 4.23312136 2 8 C0.35 8.33 -1.3 8.66 -3 9 C-2.25 2.25 -2.25 2.25 0 0 Z " fill="#6B9060" transform="translate(19,90)"/>
<path d="M0 0 C2.97 0.495 2.97 0.495 6 1 C5.67 2.98 5.34 4.96 5 7 C4.01 7 3.02 7 2 7 C1.67 6.34 1.34 5.68 1 5 C0.34 4.67 -0.32 4.34 -1 4 C-0.67 2.68 -0.34 1.36 0 0 Z " fill="#91DB49" transform="translate(80,53)"/>
<path d="M0 0 C1.65 0.33 3.3 0.66 5 1 C5 1.99 5 2.98 5 4 C4.34 4 3.68 4 3 4 C3 4.66 3 5.32 3 6 C1.68 6 0.36 6 -1 6 C-0.67 4.02 -0.34 2.04 0 0 Z " fill="#F5F8DD" transform="translate(100,25)"/>
<path d="M0 0 C2.475 0.99 2.475 0.99 5 2 C4.34 2.66 3.68 3.32 3 4 C2.34 3.67 1.68 3.34 1 3 C1 4.65 1 6.3 1 8 C0.01 8 -0.98 8 -2 8 C-2.33 6.35 -2.66 4.7 -3 3 C-2.34 3 -1.68 3 -1 3 C-0.67 2.01 -0.34 1.02 0 0 Z " fill="#415A34" transform="translate(36,136)"/>
<path d="M0 0 C3.96 1.98 3.96 1.98 8 4 C8 5.32 8 6.64 8 8 C7.34 8 6.68 8 6 8 C5.67 7.01 5.34 6.02 5 5 C4.34 5.66 3.68 6.32 3 7 C0 2.25 0 2.25 0 0 Z " fill="#A8D27B" transform="translate(100,55)"/>
<path d="M0 0 C0.99 0.33 1.98 0.66 3 1 C2.53199289 5.05606165 2.12046792 8.46588679 0 12 C0.33 9.36 0.66 6.72 1 4 C-0.65 4 -2.3 4 -4 4 C-4 3.34 -4 2.68 -4 2 C-2.68 2 -1.36 2 0 2 C0 1.34 0 0.68 0 0 Z " fill="#51683A" transform="translate(90,42)"/>
<path d="M0 0 C3.37462715 0.54723683 5.08235 1.0549 8 3 C6.75579353 3.5345256 5.50429064 4.05208611 4.25 4.5625 C3.55390625 4.85253906 2.8578125 5.14257812 2.140625 5.44140625 C-0.30012784 6.07831803 -1.6403655 5.80248831 -4 5 C-1 3 -1 3 2 3 C2 2.34 2 1.68 2 1 C1.34 0.67 0.68 0.34 0 0 Z " fill="#223B17" transform="translate(50,42)"/>
<path d="M0 0 C0.33 0.99 0.66 1.98 1 3 C0.67 3.66 0.34 4.32 0 5 C0.99 5.33 1.98 5.66 3 6 C-0.81489674 7.46726798 -3.29011622 6.43336419 -7 5 C-7 4.34 -7 3.68 -7 3 C-4.525 3.495 -4.525 3.495 -2 4 C-2 3.01 -2 2.02 -2 1 C-1.34 0.67 -0.68 0.34 0 0 Z " fill="#829138" transform="translate(112,22)"/>
<path d="M0 0 C0.33 1.32 0.66 2.64 1 4 C1.66 4 2.32 4 3 4 C3.66 5.98 4.32 7.96 5 10 C4.01 9.67 3.02 9.34 2 9 C1.67 8.34 1.34 7.68 1 7 C-0.32 7.33 -1.64 7.66 -3 8 C-2.01 5.36 -1.02 2.72 0 0 Z " fill="#5DB111" transform="translate(78,54)"/>
<path d="M0 0 C0.66 0.99 1.32 1.98 2 3 C0.35 4.65 -1.3 6.3 -3 8 C-4.125 3.25 -4.125 3.25 -3 1 C-2.01 0.67 -1.02 0.34 0 0 Z " fill="#486F27" transform="translate(42,53)"/>
<path d="M0 0 C1.37562854 1.28965176 2.70766393 2.62689293 4 4 C4 4.66 4 5.32 4 6 C3.01 6.495 3.01 6.495 2 7 C1.01 8.485 1.01 8.485 0 10 C-0.33 9.01 -0.66 8.02 -1 7 C-1.66 6.67 -2.32 6.34 -3 6 C-3 5.34 -3 4.68 -3 4 C-2.34 3.67 -1.68 3.34 -1 3 C-0.67 2.01 -0.34 1.02 0 0 Z " fill="#749256" transform="translate(81,21)"/>
<path d="M0 0 C1.53445094 3.06890187 0.54984289 5.70094266 0 9 C-0.99 8.67 -1.98 8.34 -3 8 C-3.99 8.495 -3.99 8.495 -5 9 C-4.5206753 4.68607774 -3.2542015 2.83430453 0 0 Z " fill="#465F41" transform="translate(21,85)"/>
<path d="M0 0 C0.66 0.99 1.32 1.98 2 3 C0.75 4.5625 0.75 4.5625 -1 6 C-3.1875 5.6875 -3.1875 5.6875 -5 5 C-4.1875 3.0625 -4.1875 3.0625 -3 1 C-2.01 0.67 -1.02 0.34 0 0 Z " fill="#51734D" transform="translate(38,49)"/>
<path d="M0 0 C0.99 0.33 1.98 0.66 3 1 C2.41196203 4.02419525 1.77321882 7.01758453 1 10 C0.34 10 -0.32 10 -1 10 C-1.125 3.375 -1.125 3.375 0 0 Z " fill="#618058" transform="translate(33,134)"/>
<path d="M0 0 C1.98 0 3.96 0 6 0 C6 0.66 6 1.32 6 2 C7.32 2.33 8.64 2.66 10 3 C10 3.33 10 3.66 10 4 C2.25 3.125 2.25 3.125 0 2 C0 1.34 0 0.68 0 0 Z " fill="#435937" transform="translate(53,41)"/>
<path d="M0 0 C0.66 1.32 1.32 2.64 2 4 C1.34 4 0.68 4 0 4 C0 4.99 0 5.98 0 7 C-1.32 6.67 -2.64 6.34 -4 6 C-4 5.01 -4 4.02 -4 3 C-3.01 3 -2.02 3 -1 3 C-0.67 2.01 -0.34 1.02 0 0 Z " fill="#99B506" transform="translate(110,19)"/>
<path d="M0 0 C0.12375 0.61875 0.2475 1.2375 0.375 1.875 C0.87197356 4.19120832 0.87197356 4.19120832 3 6 C0.69 5.67 -1.62 5.34 -4 5 C-3.6875 3.0625 -3.6875 3.0625 -3 1 C-2.01 0.67 -1.02 0.34 0 0 Z " fill="#81DB15" transform="translate(53,61)"/>
<path d="M0 0 C0.66 0 1.32 0 2 0 C2 0.66 2 1.32 2 2 C2.66 2 3.32 2 4 2 C3.34 3.32 2.68 4.64 2 6 C0.68 5.34 -0.64 4.68 -2 4 C-2 3.34 -2 2.68 -2 2 C-1.34 2 -0.68 2 0 2 C0 1.34 0 0.68 0 0 Z " fill="#87A062" transform="translate(30,18)"/>
<path d="M0 0 C0.66 0 1.32 0 2 0 C2 3.96 2 7.92 2 12 C0.04131238 8.08262477 -0.59339923 5.30996812 -1 1 C-0.67 0.67 -0.34 0.34 0 0 Z " fill="#4F6345" transform="translate(116,132)"/>
<path d="M0 0 C3 1 3 1 4.25 3.125 C5.18252152 6.69966583 4.70486964 9.40516483 4 13 C3.67 13 3.34 13 3 13 C2.86722656 12.31292969 2.73445313 11.62585937 2.59765625 10.91796875 C2.42105469 10.01691406 2.24445313 9.11585937 2.0625 8.1875 C1.88847656 7.29417969 1.71445313 6.40085937 1.53515625 5.48046875 C1.02258847 2.88602829 1.02258847 2.88602829 0 0 Z " fill="#598052" transform="translate(113,51)"/>
<path d="M0 0 C0.66 1.32 1.32 2.64 2 4 C1.01 4 0.02 4 -1 4 C-1.66 5.32 -2.32 6.64 -3 8 C-3.99 7.01 -4.98 6.02 -6 5 C-4.68 4.67 -3.36 4.34 -2 4 C-2 3.34 -2 2.68 -2 2 C-1.34 2 -0.68 2 0 2 C0 1.34 0 0.68 0 0 Z " fill="#D5E0AE" transform="translate(97,48)"/>
<path d="M0 0 C0.66 0.66 1.32 1.32 2 2 C0.35 4.64 -1.3 7.28 -3 10 C-3.66 9.34 -4.32 8.68 -5 8 C-3.35 5.36 -1.7 2.72 0 0 Z " fill="#45603D" transform="translate(28,107)"/>
<path d="M0 0 C1.134375 0.020625 2.26875 0.04125 3.4375 0.0625 C3.7675 1.0525 4.0975 2.0425 4.4375 3.0625 C2.5625 3.6875 2.5625 3.6875 0.4375 4.0625 C-0.2225 3.4025 -0.8825 2.7425 -1.5625 2.0625 C-2.5525 1.7325 -3.5425 1.4025 -4.5625 1.0625 C-3.5625 0.0625 -3.5625 0.0625 0 0 Z " fill="#355131" transform="translate(98.5625,74.9375)"/>
<path d="M0 0 C-0.66 0 -1.32 0 -2 0 C-2 0.66 -2 1.32 -2 2 C-1.01 2.33 -0.02 2.66 1 3 C-0.98 3.33 -2.96 3.66 -5 4 C-5 3.34 -5 2.68 -5 2 C-5.66 1.67 -6.32 1.34 -7 1 C-3.375 -1.125 -3.375 -1.125 0 0 Z " fill="#274320" transform="translate(107,73)"/>
<path d="M0 0 C0.33 1.98 0.66 3.96 1 6 C0.01 5.67 -0.98 5.34 -2 5 C-2.66 5 -3.32 5 -4 5 C-4.66 4.67 -5.32 4.34 -6 4 C-2.25 0 -2.25 0 0 0 Z " fill="#223F17" transform="translate(111,60)"/>
<path d="M0 0 C2.93200474 2.85276137 5.64315404 5.65079784 8 9 C5.04709864 7.62901008 2.39580248 6.22467373 0 4 C0 2.68 0 1.36 0 0 Z " fill="#263E1E" transform="translate(31,123)"/>
<path d="M0 0 C0 0.99 0 1.98 0 3 C-2 5 -2 5 -5.125 5.125 C-6.548125 5.063125 -6.548125 5.063125 -8 5 C-7.67 4.01 -7.34 3.02 -7 2 C-3.4375 0.8125 -3.4375 0.8125 0 0 Z " fill="#353A15" transform="translate(119,34)"/>
<path d="M0 0 C1.33332095 2.6666419 0.67102033 4.16680303 0 7 C-1.32 7.33 -2.64 7.66 -4 8 C-3.40072174 4.64404172 -2.15377564 2.62198774 0 0 Z " fill="#70810D" transform="translate(119,28)"/>
<path d="M0 0 C1.32 0 2.64 0 4 0 C3.67 1.98 3.34 3.96 3 6 C2.01 5.67 1.02 5.34 0 5 C0 3.35 0 1.7 0 0 Z " fill="#D0D994" transform="translate(111,29)"/>
<path d="M0 0 C0 0.66 0 1.32 0 2 C-0.66 2 -1.32 2 -2 2 C-2 2.66 -2 3.32 -2 4 C-3.65 4.33 -5.3 4.66 -7 5 C-7.33 4.34 -7.66 3.68 -8 3 C-2.25 0 -2.25 0 0 0 Z " fill="#599E0E" transform="translate(50,59)"/>
<path d="M0 0 C1.32 0.66 2.64 1.32 4 2 C2.8125 3.5625 2.8125 3.5625 1 5 C-1.6875 4.6875 -1.6875 4.6875 -4 4 C-2.68 2.68 -1.36 1.36 0 0 Z " fill="#405838" transform="translate(40,46)"/>
<path d="M0 0 C0.99 0.495 0.99 0.495 2 1 C3.26229508 5.47540984 3.26229508 5.47540984 2 8 C1.34 8 0.68 8 0 8 C0 5.36 0 2.72 0 0 Z " fill="#63825B" transform="translate(22,100)"/>
<path d="M0 0 C2.97 0.495 2.97 0.495 6 1 C5.67 1.66 5.34 2.32 5 3 C4.34 3 3.68 3 3 3 C3.33 4.32 3.66 5.64 4 7 C1.49962266 4.82575883 0.56371414 3.26954202 0 0 Z " fill="#172215" transform="translate(116,75)"/>
</svg>
